STARTFONT 2.3
FONT -FontForge-Hanalei-Book-R-Normal--24-240-72-72-P-121-ISO10646-1
SIZE 24 72 72  4
FONTBOUNDINGBOX 32 32 -2 -7
COMMENT "Generated by fontforge, http://fontforge.sourceforge.net"
COMMENT "Copyright (c) 2012 by Brian J. Bonislawsky DBA Astigmatic (AOETI) (astigma@astigmatic.com), with ReservedFont Name "Hanalei""
STARTPROPERTIES 40
FOUNDRY "FontForge"
FAMILY_NAME "Hanalei"
WEIGHT_NAME "Book"
SLANT "R"
SETWIDTH_NAME "Normal"
ADD_STYLE_NAME ""
PIXEL_SIZE 24
POINT_SIZE 240
RESOLUTION_X 72
RESOLUTION_Y 72
SPACING "P"
AVERAGE_WIDTH 121
CHARSET_REGISTRY "ISO10646"
CHARSET_ENCODING "1"
FONTNAME_REGISTRY ""
CHARSET_COLLECTIONS "ISO8859-2 ISO8859-9 ISO8859-4 ISO10646-1"
BITS_PER_PIXEL 4
FONT_NAME "Hanalei-Regular"
FACE_NAME "Hanalei"
COPYRIGHT "Copyright (c) 2012 by Brian J. Bonislawsky DBA Astigmatic (AOETI) (astigma@astigmatic.com), with ReservedFont Name "Hanalei""
FONT_VERSION "1.000"
FONT_ASCENT 19
FONT_DESCENT 5
UNDERLINE_POSITION -3
UNDERLINE_THICKNESS 1
X_HEIGHT 16
CAP_HEIGHT 16
RAW_ASCENT 799
RAW_DESCENT 200
NORM_SPACE 5
RELATIVE_WEIGHT 40
RELATIVE_SETWIDTH 50
SUPERSCRIPT_X 0
SUPERSCRIPT_Y 11
SUPERSCRIPT_SIZE 15
SUBSCRIPT_X 0
SUBSCRIPT_Y 3
SUBSCRIPT_SIZE 15
AVG_LOWERCASE_WIDTH 129
AVG_UPPERCASE_WIDTH 127
ENDPROPERTIES
CHARS 366
STARTCHAR space
ENCODING 32
SWIDTH 200 0
DWIDTH 5 0
BBX 1 1 0 0
BITMAP
00
ENDCHAR
STARTCHAR exclam
ENCODING 33
SWIDTH 257 0
DWIDTH 6 0
BBX 6 18 0 -1
BITMAP
027840
191066
080044
090072
090080
090081
1D9863
090081
090090
090090
090080
0A11A0
027720
027610
0A1290
090080
093580
014400
ENDCHAR
STARTCHAR quotedbl
ENCODING 34
SWIDTH 476 0
DWIDTH 11 0
BBX 11 11 0 7
BITMAP
048830179610
2901A1920390
090090620260
080080530450
1A7580877370
391280931270
080080710350
080080710260
360072900090
2A56A1775860
014300024100
ENDCHAR
STARTCHAR numbersign
ENCODING 35
SWIDTH 1076 0
DWIDTH 26 0
BBX 26 18 0 -1
BITMAP
03999610039982038546633610
0A101B8009101A091454A66490
072027900720271800008289B0
072045820720451A0000591082
0810451A0810451D99C99A0071
0B8849664B8848080080080080
0A003A218A0037080080080070
09005500A90054080083280280
09005B004E00542600B6C997D0
09004B400830451C8960800090
0B87399784B738081000700090
090146B400A137087999888960
09005328007354003200000100
09006308101A73009688889200
090054045005A4027000001800
18002701803A37018000001800
088893007AE99200788888A200
00010000000100000000000000
ENDCHAR
STARTCHAR dollar
ENCODING 36
SWIDTH 453 0
DWIDTH 11 0
BBX 11 23 0 -4
BITMAP
000189910000
000720180000
000530260000
000440469200
000478A81A00
035979000630
484005201730
630001498600
27018A810000
2C993AA00000
2A4028393000
017761017A00
000592000810
00004D600C00
01488A68A930
395106220640
630001488700
360179B40000
087B50620000
002630620000
000800530000
000498920000
000001000000
ENDCHAR
STARTCHAR percent
ENCODING 37
SWIDTH 889 0
DWIDTH 21 0
BBX 21 17 0 0
BITMAP
0375434000000000000000
0A62225600577500000000
4518003850700800000000
3308697340700700000000
2407060330704300000000
2406060334606100000000
4379680347568000000000
6710070167008053101000
2B20167927026664666700
0066567307043948100A70
0000000059361606678460
0000000070381607033060
0000000070080607042070
000000007035064A362070
0000000530531770380070
0000000462721960056670
0000000026300066677800
ENDCHAR
STARTCHAR ampersand
ENCODING 38
SWIDTH 627 0
DWIDTH 15 0
BBX 15 19 0 -1
BITMAP
0000651000000000
00059878C9776000
002A565062118200
0091008077986300
002800998604C000
0008202890019000
0002715840191000
0000B93260810000
0005D20094500000
001819005B000000
0081054009201500
0640099385A89570
750074A800A00080
9003CB6900720080
B3090807301A9980
9684061480046000
8001589690083000
3887310069940000
0320000000000000
ENDCHAR
STARTCHAR quotesingle
ENCODING 39
SWIDTH 246 0
DWIDTH 6 0
BBX 6 11 0 7
BITMAP
048830
2901A1
090090
080080
1A7580
391280
080080
080080
360072
2A56A1
014300
ENDCHAR
STARTCHAR parenleft
ENCODING 40
SWIDTH 387 0
DWIDTH 9 0
BBX 11 21 -1 -2
BITMAP
000001310000
000008696000
000009007300
000064009200
000380064000
000C93090000
004507540000
00A001A00000
065008300000
380028000000
190076000000
0BB8AA000000
029103900000
003700480000
000849291000
0003C0029000
000084005700
000009100650
000002800730
000000957800
000000152000
ENDCHAR
STARTCHAR parenright
ENCODING 41
SWIDTH 386 0
DWIDTH 9 0
BBX 11 21 -1 -2
BITMAP
000031000000
003A6A000000
00A007300000
009201900000
001900560000
0006318C3000
000186128000
000083009100
000009002900
000005500460
000002B00650
000008989E00
000065016500
000471037000
000A17680000
006500870000
038002900000
190009100000
0A0054000000
0494A0000000
001520000000
ENDCHAR
STARTCHAR asterisk
ENCODING 42
SWIDTH 517 0
DWIDTH 12 0
BBX 12 12 0 6
BITMAP
000003400000
000047480000
000026070000
065017260181
46495A878829
641091181019
158880039873
0002A4187000
000909826300
009227270830
009180081640
002850028500
ENDCHAR
STARTCHAR plus
ENCODING 43
SWIDTH 458 0
DWIDTH 11 0
BBX 11 11 0 2
BITMAP
000189930000
000540090000
010350170000
1A899CAA9B10
630004400360
630004400260
284776687920
044463642300
000530350000
000495850000
000014200000
ENDCHAR
STARTCHAR comma
ENCODING 44
SWIDTH 228 0
DWIDTH 5 0
BBX 7 8 -1 -4
BITMAP
00020000
0048A400
00800900
07301910
73009100
71063000
1A790000
00200000
ENDCHAR
STARTCHAR hyphen
ENCODING 45
SWIDTH 465 0
DWIDTH 11 0
BBX 11 6 0 5
BITMAP
011002000100
19788AA99A20
540003500270
540003400270
1A6887888920
023001100200
ENDCHAR
STARTCHAR period
ENCODING 46
SWIDTH 202 0
DWIDTH 5 0
BBX 5 5 0 -1
BITMAP
057400
651730
440610
483920
025200
ENDCHAR
STARTCHAR slash
ENCODING 47
SWIDTH 453 0
DWIDTH 11 0
BBX 11 17 0 0
BITMAP
000000253000
000000947900
000001800550
000006400A10
000019005500
0000AA609000
000090449000
000370073000
000910180000
003800720000
009792900000
009004900000
055009100000
1A0037000000
820082000000
391090000000
028960000000
ENDCHAR
STARTCHAR zero
ENCODING 48
SWIDTH 646 0
DWIDTH 16 0
BBX 17 19 -1 -1
BITMAP
000000352000000000
00000094A630000000
000005400B90000000
000019003927000000
0002B101A005700000
00097918A300570000
002801490918482000
00A1009204D3019000
094627300084002910
19A4A70000073002A0
0B102910002A910290
0A2002A404D2385A10
017600484A291A6000
00065832D101580000
0000983A2004810000
000018C00046000000
000000740290000000
000000088A10000000
000000001100000000
ENDCHAR
STARTCHAR one
ENCODING 49
SWIDTH 400 0
DWIDTH 10 0
BBX 10 18 -1 -1
BITMAP
000009A861
000199613A
0048154009
1940035018
36002B4018
0A12985519
01891A5439
0000072018
0000063026
0000063027
0000095419
0000095449
0000072027
0000072036
0000091027
0000090009
0000096477
0000004530
ENDCHAR
STARTCHAR two
ENCODING 50
SWIDTH 502 0
DWIDTH 12 0
BBX 12 18 0 -1
BITMAP
000045230000
000374C84000
002800549100
058001931900
75002B700291
900191660019
3A2910083065
027300499977
000009700076
000086801A30
000850259200
029400084000
0A1001A30000
0C101BB889A0
46A484700063
440542600054
1A79977997A1
012002200220
ENDCHAR
STARTCHAR three
ENCODING 51
SWIDTH 456 0
DWIDTH 11 0
BBX 11 18 0 -1
BITMAP
038300000000
1915888A2000
46000002C200
270000018900
0788AA792720
0003D5137700
001A16565000
03A259790000
080660A30000
055900085000
007C30007930
000168388A80
0005BB720560
399519000270
800007038A40
820025961000
2A4974100000
025000000000
ENDCHAR
STARTCHAR four
ENCODING 52
SWIDTH 514 0
DWIDTH 12 0
BBX 13 18 -1 -1
BITMAP
00000034476100
00000095C32B00
00000620180900
00002700650900
00029004700900
0009880D752900
0036026D643900
01900376300900
09200C8BA88960
36006302700090
09308001700090
017D5577788970
00027306400800
00000005401700
00000007201800
00000009000900
00000008646800
00000000353000
ENDCHAR
STARTCHAR five
ENCODING 53
SWIDTH 500 0
DWIDTH 12 0
BBX 12 18 0 -1
BITMAP
004403534830
0A56D5B54190
080080800090
080080424390
0800B8864530
080090000000
1898B8732510
1D2021957780
090000849693
065552473025
005336774053
000000034053
033014153253
28687B899885
7200062000B6
630006100090
1A9888998950
010001000100
ENDCHAR
STARTCHAR six
ENCODING 54
SWIDTH 520 0
DWIDTH 13 0
BBX 14 18 -1 -1
BITMAP
00005995000000
00009005700000
00008004600000
00009009000000
00054009000000
000B9828000000
0009014D100000
00090083A40000
0027009006A000
00720090058910
00B982C8280296
00900564987009
01800915A33865
06400C84000A70
0A001700002A00
1A002700597200
0399B729400000
00000681000000
ENDCHAR
STARTCHAR seven
ENCODING 55
SWIDTH 423 0
DWIDTH 10 0
BBX 11 18 0 -1
BITMAP
152364237200
946668763900
800017000900
900014010B40
69999B989C00
00000A004500
00005A867200
00006301A000
000090037000
000190081000
0007A5090000
0009035A0000
000900650000
004500A00000
00A001800000
018003600000
006A7A400000
000021000000
ENDCHAR
STARTCHAR eight
ENCODING 56
SWIDTH 527 0
DWIDTH 13 0
BBX 13 18 0 -1
BITMAP
02521352126100
0A4786A7874800
08000062141900
3B034454A5A900
3D966A67700900
04700748103600
008135A5009000
002B6046063000
000A2009180000
002A9101A60000
00711802580000
01800A88181000
081046A0028000
6400B6A8005700
90036218300730
49491006901C40
01C67987C9CD10
00151001001200
ENDCHAR
STARTCHAR nine
ENCODING 57
SWIDTH 500 0
DWIDTH 12 0
BBX 13 18 0 -1
BITMAP
00000004700000
000179954C8100
37886600092A10
92000800090820
9000036B853700
920799B6009000
999391A7929000
57001980056000
029107300A0000
00191900640000
0002D920900000
0000A174900000
00028006500000
00092019000000
00570063000000
00820090000000
001A65A0000000
00003410000000
ENDCHAR
STARTCHAR colon
ENCODING 58
SWIDTH 245 0
DWIDTH 6 0
BBX 4 14 1 -1
BITMAP
1551
A339
8007
9229
1661
0000
0000
0000
0000
2761
A129
8008
9448
0440
ENDCHAR
STARTCHAR semicolon
ENCODING 59
SWIDTH 270 0
DWIDTH 6 0
BBX 7 17 -1 -4
BITMAP
00025300
00382660
00170440
00291640
00037400
00000000
00000000
00000000
00000000
00011000
00098900
00620550
03600750
28006500
27018000
07892000
00110000
ENDCHAR
STARTCHAR less
ENCODING 60
SWIDTH 445 0
DWIDTH 11 0
BBX 10 14 0 1
BITMAP
0000001A70
000003A157
0002D70009
005819005A
3A40033940
6400059200
2A01A50000
499A596000
630102B800
2882082398
0008630009
0000596019
00000049A2
0000000200
ENDCHAR
STARTCHAR equal
ENCODING 61
SWIDTH 484 0
DWIDTH 12 0
BBX 11 11 0 3
BITMAP
069889A67920
090001822190
270000800090
090232443280
049657855810
000000000000
069889A67920
090001822190
270000800090
090232443280
049657855810
ENDCHAR
STARTCHAR greater
ENCODING 62
SWIDTH 445 0
DWIDTH 11 0
BBX 11 14 0 1
BITMAP
018800000000
0B2492000000
37001AA00000
3A3028293000
017750016A00
000593000810
000018701A00
000188799A00
0019A0010720
198154049700
360004850000
1A0188300000
059920000000
001100000000
ENDCHAR
STARTCHAR question
ENCODING 63
SWIDTH 455 0
DWIDTH 11 0
BBX 11 18 0 -1
BITMAP
06A600000000
280488700000
540001A98700
450004401550
078864000440
00003D981A50
000782029860
004800039500
009900760000
008299300000
008008000000
00A11A000000
002882000000
004750000000
028137000000
008035000000
01A365000000
001530000000
ENDCHAR
STARTCHAR at
ENCODING 64
SWIDTH 812 0
DWIDTH 19 0
BBX 19 20 0 -2
BITMAP
00173123102400010000
0082576B786B889B0000
08A00007000705857000
0875786678656B107000
07148035112423507000
08017276697683755400
0A638520042007B31600
0A228397877689700700
08027330717006430710
080265207060062A7630
08018714406106070340
0B85979677B77B790070
08018A50007003690080
08035271315003358960
08027056567777777900
1700B7A5000000001100
08894073780000000000
00676240070000000000
00000567470000000000
00000000300000000000
ENDCHAR
STARTCHAR A
ENCODING 65
SWIDTH 507 0
DWIDTH 12 0
BBX 13 17 0 0
BITMAP
00069940000000
00090075000000
00080069A00000
001800A0A00000
00630080910000
00C97280550000
009014812A0000
009009C7390000
03600982090000
08200836189A00
0B982CCA750360
09015617000080
18009107013560
55009357978810
9000C645700900
90018001800A20
3A994001999400
ENDCHAR
STARTCHAR B
ENCODING 66
SWIDTH 533 0
DWIDTH 13 0
BBX 13 19 0 -1
BITMAP
00089100000000
04C31885100000
0A900017C40000
09900006359940
0849A717000080
09006698500180
0C985607994A20
0A004BB3006920
09006473038700
09007205690000
09006339478200
0C874C90001930
0900557A300730
090088C7943B60
0958A373088460
0E620007189610
3D300016920000
0A903973000000
005A8000000000
ENDCHAR
STARTCHAR C
ENCODING 67
SWIDTH 515 0
DWIDTH 12 0
BBX 13 19 0 -1
BITMAP
00010000000000
00899888301200
0180000A688A10
02600008000530
00935414000620
00B64B89889900
05B73900000000
07313900000000
06301900000000
07203600000000
0A004500000000
0C885700000000
09006300000000
18009166589900
6400B878310630
A1009008000450
2C997005256920
06538999632300
00661000000000
ENDCHAR
STARTCHAR D
ENCODING 68
SWIDTH 520 0
DWIDTH 12 0
BBX 13 19 0 -1
BITMAP
00004400000000
04AC5730000000
0A640092000000
09910019400000
08295000A50000
09008601982000
0C885D4711A200
0A004586001850
09006205800180
09007200860950
09006304989490
0C874687001950
09015C7911A200
09007701693000
09008100760000
09007209400000
36004683000000
1988C670000000
00015600000000
ENDCHAR
STARTCHAR E
ENCODING 69
SWIDTH 490 0
DWIDTH 12 0
BBX 12 18 0 -1
BITMAP
049985875691
0A0029564227
090045260009
081064234337
090069885581
0C8856000000
0A0046124000
090067768300
090072002700
090063104500
0C874B89A000
090155000000
090079A63440
090081846582
090072710045
360047422063
198896866980
000100000000
ENDCHAR
STARTCHAR F
ENCODING 70
SWIDTH 475 0
DWIDTH 11 0
BBX 12 17 0 0
BITMAP
049985875691
0A0029564227
090045260009
081064234337
090069885581
0C8856000000
0A0046124000
090067768300
090072002700
090063104500
0C874B89A000
090155000000
090072000000
090081000000
090072000000
360046000000
198891000000
ENDCHAR
STARTCHAR G
ENCODING 71
SWIDTH 557 0
DWIDTH 13 0
BBX 14 19 0 -1
BITMAP
00010000000000
00899888301200
0180000A688A10
02600008000530
00935414000620
00B64B89889900
05B73900000000
07313900000000
06301900298940
07203600810080
0A004500440260
0C885700350170
09006300598590
18009166A40090
6400B878650080
A1009008260090
2C997005640081
06538999798960
00661000000000
ENDCHAR
STARTCHAR H
ENCODING 72
SWIDTH 611 0
DWIDTH 15 0
BBX 15 17 0 0
BITMAP
0499820019998100
0A00280055004600
0900450018007200
0810630009008000
0900630009009000
0C9856002B757200
0A00450038028200
0900630008009100
090072000925BA20
090064015C940180
0C874DB622600090
0900558001546950
0900726378959100
09008A9737009000
0900730045009000
3600460082007200
0888910029997000
ENDCHAR
STARTCHAR I
ENCODING 73
SWIDTH 266 0
DWIDTH 6 0
BBX 6 17 0 0
BITMAP
049982
0A0028
090045
081063
090063
0C9856
0A0045
090062
090072
090063
0C8746
090054
090072
090081
090072
360046
088891
ENDCHAR
STARTCHAR J
ENCODING 74
SWIDTH 484 0
DWIDTH 12 0
BBX 12 18 -1 -1
BITMAP
000000029993
00000007300A
000000044009
000000045018
000000053018
000000099849
0000000A1019
000000072027
018A10063036
0A2280072027
5400660A9839
2A3005790019
0091568B1036
002B700C3045
00076001A327
000065004509
00000911C894
000003A92100
ENDCHAR
STARTCHAR K
ENCODING 75
SWIDTH 541 0
DWIDTH 13 0
BBX 14 18 0 -1
BITMAP
04998100014100
0A002800076A40
09004500370091
08106303900084
0900635C100940
0C8856A3917400
0A004C30149000
09006600291000
09007102B70000
09006A09190000
0C874867047000
09015AC4759000
0900783C107200
09008109002800
09007203600740
36004600900650
19889100978700
00000000021000
ENDCHAR
STARTCHAR L
ENCODING 76
SWIDTH 467 0
DWIDTH 11 0
BBX 12 17 0 0
BITMAP
049982000000
0A0028000000
090045000000
081063000000
090063000000
0C9856000000
0A0045000000
090062000000
090072000000
090063000000
0C8746000000
090054000000
090079631250
090085867656
090074700009
360048300018
0888999889A2
ENDCHAR
STARTCHAR M
ENCODING 77
SWIDTH 733 0
DWIDTH 18 0
BBX 19 18 -1 -1
BITMAP
00029981000399710000
0006402A0007303A0000
0006300B7008101C4000
00081045900900775000
000A0062903700936000
004C8571829983918000
00450181399002809000
005400C7399007A78100
007202E108700B208100
0090048606400B607200
00D9745901C839804600
01801749767246A74900
02700907304590B10900
05400902701980900900
0A001800900870810630
19001800900570710190
04A99400799600698950
00000000000000011000
ENDCHAR
STARTCHAR N
ENCODING 78
SWIDTH 598 0
DWIDTH 14 0
BBX 14 17 0 0
BITMAP
04998510049981
0A002C700A0029
09004590090045
08106391091063
09006329090063
0C8858683C8856
0A0048137A0045
09006300A90063
090079006D0072
09006A20092063
0C87498785A746
090155C2019155
09007247008172
09008109001A81
090072054007A2
36004603603A46
198892008BD892
ENDCHAR
STARTCHAR O
ENCODING 79
SWIDTH 612 0
DWIDTH 15 0
BBX 15 19 0 -1
BITMAP
0001000000000000
0089988831341000
0180000A688BB200
026000080005B100
009354140006B000
00B64B898B998100
05B739000A555500
073139000C534600
0630190009005400
0720360008104600
0A00450006201800
0C88570008875900
0900630006510900
1800904758B98900
6400B85B43107B00
A100900800005C20
2C9970051466AB20
0653899985597200
0066100000000000
ENDCHAR
STARTCHAR P
ENCODING 80
SWIDTH 513 0
DWIDTH 12 0
BBX 13 19 0 -1
BITMAP
00056000000000
02964A51000000
0BB00049A10000
09900005598510
09798309001480
09006995100180
0B655515C81730
1B335519419B30
090068C1003920
09007647066000
09007204640000
0B534517500000
0B346781000000
09007900000000
09008000000000
09007100000000
36005500000000
2A55A300000000
00341000000000
ENDCHAR
STARTCHAR Q
ENCODING 81
SWIDTH 612 0
DWIDTH 15 0
BBX 15 22 0 -4
BITMAP
0001000000000000
0089988831341000
0180000A688BB200
026000080005B100
009354140006B000
00B64B898B998100
05B739000A555500
073139000C534600
0630190009005400
0720360008104600
0A00450006201800
0C88570008875900
0900630006510900
1800904758B98900
6400B85B43107B00
A100900800005C20
2C9970051466AB20
06538A99A8597200
0066172027000000
0000081009000000
0000085368000000
0000004630000000
ENDCHAR
STARTCHAR R
ENCODING 82
SWIDTH 532 0
DWIDTH 13 0
BBX 13 19 0 -1
BITMAP
00034000000000
01786820000000
0AB0017A800000
09900005796310
09886109003680
09008A73000090
0A325438B70640
1C56560763AC20
090067B3102920
090079A9988100
090076601A0000
0A214780073000
0C6758B5039000
09007B1A845500
09008108300900
09008100A00280
27005400530090
29228400195920
02662000024000
ENDCHAR
STARTCHAR S
ENCODING 83
SWIDTH 442 0
DWIDTH 11 0
BBX 11 19 0 -1
BITMAP
000000001100
02447A898A00
1A9929000540
3C5746100450
910095688A10
470087200000
073019100000
018284600000
009910900000
003800460000
000550074000
000091759000
00006A108100
00014B101900
6988A7800380
900035900560
900024889800
757889534000
052000000000
ENDCHAR
STARTCHAR T
ENCODING 84
SWIDTH 453 0
DWIDTH 11 0
BBX 12 18 -1 -1
BITMAP
079888B88896
180000721009
270000620008
0A3576568759
026366447142
000072018000
0000A9849000
000090018000
000072036000
000072026000
000093219000
0000A6649000
000081027000
000081045000
000090036000
000090009000
000079894000
000000100000
ENDCHAR
STARTCHAR U
ENCODING 85
SWIDTH 583 0
DWIDTH 14 0
BBX 14 18 0 -1
BITMAP
01899400289930
04600920A10190
02700900720270
03600900530260
05400900530180
0B983900888590
09002800830090
09004500450090
09006300270090
09006300270090
1C8865003A8772
09008100283181
180091657C8990
5500B8952007B0
910090260005A3
4A788014378B37
05637889698891
00782000001100
ENDCHAR
STARTCHAR V
ENCODING 86
SWIDTH 506 0
DWIDTH 12 0
BBX 13 18 0 -1
BITMAP
01310000000000
59694000999400
A0046000800A10
82028001800900
36009005403500
0800730C616300
0C974609367200
0A002827009000
05500A45026000
009009A1053000
009013C8863000
00A97380091000
00630460180000
00180810540000
00091900720000
00092900810000
000947D9700000
00016510000000
ENDCHAR
STARTCHAR W
ENCODING 87
SWIDTH 735 0
DWIDTH 18 0
BBX 19 18 -1 -1
BITMAP
00031000000000153000
0696A300023000B45A20
1A005500875A00900550
08103702900801800900
04600905B10715500900
0180082B95027B521800
01C9745A4B858B464700
00A00268190088006300
00630097071068009000
00180093035046009000
000802A985B9C6209000
000B96A005B094649000
00072090097190045000
00018180085490081000
00009720085860090000
00009820091C10090000
0000A4CB9305834A0000
00001651000026510000
ENDCHAR
STARTCHAR X
ENCODING 88
SWIDTH 483 0
DWIDTH 12 0
BBX 12 17 0 0
BITMAP
001200001000
098940088A50
8301800A0092
650082650083
08201A900560
01802D700900
0098B5395400
00589001A000
000960093000
001A00389000
008991A87300
009025902800
07300A700820
570074910191
A00090270037
920450090093
188910059940
ENDCHAR
STARTCHAR Y
ENCODING 89
SWIDTH 484 0
DWIDTH 12 0
BBX 14 17 -1 0
BITMAP
00130000045200
078840000A4870
45009000360082
65004800810190
06500573700820
0081468C940900
002B6038054700
00093064009100
000082A0045000
00001C50090000
00000A88190000
00002701670000
00008200A00000
00038006400000
000A0009000000
00067009000000
00004994000000
ENDCHAR
STARTCHAR Z
ENCODING 90
SWIDTH 458 0
DWIDTH 11 0
BBX 13 17 -1 0
BITMAP
00285686576000
00913284418100
00800062006A00
00902343549B10
003965C735C300
000004D4028000
00000916681000
00001900290000
00009200A10000
00067007400000
000A8809000000
00460257000000
01A001C4254000
1A2009A6639100
28002762005300
08507331318100
005D9888576000
ENDCHAR
STARTCHAR bracketleft
ENCODING 91
SWIDTH 420 0
DWIDTH 10 0
BBX 10 21 0 -2
BITMAP
0000000260
0014577656
02CA500009
0B22840029
0900698862
0900810000
0900900000
1A53720000
3A45630000
1900900000
0900900000
0900900000
1A42720000
2A56730000
0800900000
0900900000
2700976682
6400822219
4934A10009
02AA777548
0004101250
ENDCHAR
STARTCHAR backslash
ENCODING 92
SWIDTH 453 0
DWIDTH 11 0
BBX 11 17 0 0
BITMAP
004520000000
1A6490000000
830090000000
290064000000
07300A100000
01907B800000
009420900000
005600910000
000900370000
0004500A2000
000093977000
0000A3009000
000028007300
000008101A10
000003600460
000001902A10
000000798100
ENDCHAR
STARTCHAR bracketright
ENCODING 93
SWIDTH 420 0
DWIDTH 10 0
BBX 10 21 0 -2
BITMAP
0530000000
5657754200
900004AC20
82003922A1
2678870090
0000190090
0000090090
0000183592
0000175495
0000090072
0000090090
0000090080
0000182493
0000186594
0000090071
0000090081
28666A0063
8122290027
90001A4385
7557779B20
0521013100
ENDCHAR
STARTCHAR asciicircum
ENCODING 94
SWIDTH 353 0
DWIDTH 8 0
BBX 8 7 0 9
BITMAP
00187300
00724E10
02805760
0913A082
63097109
28641848
02400350
ENDCHAR
STARTCHAR underscore
ENCODING 95
SWIDTH 499 0
DWIDTH 12 0
BBX 10 6 1 -7
BITMAP
0200110010
87888C9997
9000080009
9000080009
8588878878
0410020020
ENDCHAR
STARTCHAR grave
ENCODING 96
SWIDTH 183 0
DWIDTH 4 0
BBX 5 6 0 18
BITMAP
025000
777400
901700
370900
081540
01A910
ENDCHAR
STARTCHAR a
ENCODING 97
SWIDTH 507 0
DWIDTH 12 0
BBX 13 17 0 0
BITMAP
00069940000000
00090075000000
00080069A00000
001800A0A00000
00630080910000
00C97280550000
009014812A0000
009009C7390000
03600982090000
08200836189A00
0B982CCA750360
09015617000080
18009107013560
55009357978810
9000C645700900
90018001800A20
3A994001999400
ENDCHAR
STARTCHAR b
ENCODING 98
SWIDTH 533 0
DWIDTH 13 0
BBX 13 19 0 -1
BITMAP
00089100000000
04C31885100000
0A900017C40000
09900006359940
0849A717000080
09006698500180
0C985607994A20
0A004BB3006920
09006473038700
09007205690000
09006339478200
0C874C90001930
0900557A300730
090088C7943B60
0958A373088460
0E620007189610
3D300016920000
0A903973000000
005A8000000000
ENDCHAR
STARTCHAR c
ENCODING 99
SWIDTH 515 0
DWIDTH 12 0
BBX 13 19 0 -1
BITMAP
00010000000000
00899888301200
0180000A688A10
02600008000530
00935414000620
00B64B89889900
05B73900000000
07313900000000
06301900000000
07203600000000
0A004500000000
0C885700000000
09006300000000
18009166589900
6400B878310630
A1009008000450
2C997005256920
06538999632300
00661000000000
ENDCHAR
STARTCHAR d
ENCODING 100
SWIDTH 520 0
DWIDTH 12 0
BBX 13 19 0 -1
BITMAP
00004400000000
04AC5730000000
0A640092000000
09910019400000
08295000A50000
09008601982000
0C885D4711A200
0A004586001850
09006205800180
09007200860950
09006304989490
0C874687001950
09015C7911A200
09007701693000
09008100760000
09007209400000
36004683000000
1988C670000000
00015600000000
ENDCHAR
STARTCHAR e
ENCODING 101
SWIDTH 490 0
DWIDTH 12 0
BBX 12 18 0 -1
BITMAP
049985875691
0A0029564227
090045260009
081064234337
090069885581
0C8856000000
0A0046124000
090067768300
090072002700
090063104500
0C874B89A000
090155000000
090079A63440
090081846582
090072710045
360047422063
198896866980
000100000000
ENDCHAR
STARTCHAR f
ENCODING 102
SWIDTH 475 0
DWIDTH 11 0
BBX 12 17 0 0
BITMAP
049985875691
0A0029564227
090045260009
081064234337
090069885581
0C8856000000
0A0046124000
090067768300
090072002700
090063104500
0C874B89A000
090155000000
090072000000
090081000000
090072000000
360046000000
198891000000
ENDCHAR
STARTCHAR g
ENCODING 103
SWIDTH 557 0
DWIDTH 13 0
BBX 14 19 0 -1
BITMAP
00010000000000
00899888301200
0180000A688A10
02600008000530
00935414000620
00B64B89889900
05B73900000000
07313900000000
06301900298940
07203600810080
0A004500440260
0C885700350170
09006300598590
18009166A40090
6400B878650080
A1009008260090
2C997005640081
06538999798960
00661000000000
ENDCHAR
STARTCHAR h
ENCODING 104
SWIDTH 611 0
DWIDTH 15 0
BBX 15 17 0 0
BITMAP
0499820019998100
0A00280055004600
0900450018007200
0810630009008000
0900630009009000
0C9856002B757200
0A00450038028200
0900630008009100
090072000925BA20
090064015C940180
0C874DB622600090
0900558001546950
0900726378959100
09008A9737009000
0900730045009000
3600460082007200
0888910029997000
ENDCHAR
STARTCHAR i
ENCODING 105
SWIDTH 266 0
DWIDTH 6 0
BBX 6 17 0 0
BITMAP
049982
0A0028
090045
081063
090063
0C9856
0A0045
090062
090072
090063
0C8746
090054
090072
090081
090072
360046
088891
ENDCHAR
STARTCHAR j
ENCODING 106
SWIDTH 482 0
DWIDTH 12 0
BBX 12 18 -1 -1
BITMAP
000000029993
00000007300A
000000044009
000000045018
000000053018
000000099849
0000000A1019
000000072027
018A10063036
0A2280072027
5400660A9839
2A3005790019
0091568B1036
002B700C3045
00076001A327
000065004509
00000911C894
000003A92100
ENDCHAR
STARTCHAR k
ENCODING 107
SWIDTH 541 0
DWIDTH 13 0
BBX 14 18 0 -1
BITMAP
04998100014100
0A002800076A40
09004500370091
08106303900084
0900635C100940
0C8856A3917400
0A004C30149000
09006600291000
09007102B70000
09006A09190000
0C874867047000
09015AC4759000
0900783C107200
09008109002800
09007203600740
36004600900650
19889100978700
00000000021000
ENDCHAR
STARTCHAR l
ENCODING 108
SWIDTH 467 0
DWIDTH 11 0
BBX 12 17 0 0
BITMAP
049982000000
0A0028000000
090045000000
081063000000
090063000000
0C9856000000
0A0045000000
090062000000
090072000000
090063000000
0C8746000000
090054000000
090079631250
090085867656
090074700009
360048300018
0888999889A2
ENDCHAR
STARTCHAR m
ENCODING 109
SWIDTH 733 0
DWIDTH 18 0
BBX 19 18 -1 -1
BITMAP
00029981000399710000
0006402A0007303A0000
0006300B7008101C4000
00081045900900775000
000A0062903700936000
004C8571829983918000
00450181399002809000
005400C7399007A78100
007202E108700B208100
0090048606400B607200
00D9745901C839804600
01801749767246A74900
02700907304590B10900
05400902701980900900
0A001800900870810630
19001800900570710190
04A99400799600698950
00000000000000011000
ENDCHAR
STARTCHAR n
ENCODING 110
SWIDTH 598 0
DWIDTH 14 0
BBX 14 17 0 0
BITMAP
04998510049981
0A002C700A0029
09004590090045
08106391091063
09006329090063
0C8858683C8856
0A0048137A0045
09006300A90063
090079006D0072
09006A20092063
0C87498785A746
090155C2019155
09007247008172
09008109001A81
090072054007A2
36004603603A46
198892008BD892
ENDCHAR
STARTCHAR o
ENCODING 111
SWIDTH 612 0
DWIDTH 15 0
BBX 15 19 0 -1
BITMAP
0001000000000000
0089988831341000
0180000A688BB200
026000080005B100
009354140006B000
00B64B898B998100
05B739000A555500
073139000C534600
0630190009005400
0720360008104600
0A00450006201800
0C88570008875900
0900630006510900
1800904758B98900
6400B85B43107B00
A100900800005C20
2C9970051466AB20
0653899985597200
0066100000000000
ENDCHAR
STARTCHAR p
ENCODING 112
SWIDTH 513 0
DWIDTH 12 0
BBX 13 19 0 -1
BITMAP
00056000000000
02964A51000000
0BB00049A10000
09900005598510
09798309001480
09006995100180
0B655515C81730
1B335519419B30
090068C1003920
09007647066000
09007204640000
0B534517500000
0B346781000000
09007900000000
09008000000000
09007100000000
36005500000000
2A55A300000000
00341000000000
ENDCHAR
STARTCHAR q
ENCODING 113
SWIDTH 612 0
DWIDTH 15 0
BBX 15 22 0 -4
BITMAP
0001000000000000
0089988831341000
0180000A688BB200
026000080005B100
009354140006B000
00B64B898B998100
05B739000A555500
073139000C534600
0630190009005400
0720360008104600
0A00450006201800
0C88570008875900
0900630006510900
1800904758B98900
6400B85B43107B00
A100900800005C20
2C9970051466AB20
06538A99A8597200
0066172027000000
0000081009000000
0000085368000000
0000004630000000
ENDCHAR
STARTCHAR r
ENCODING 114
SWIDTH 532 0
DWIDTH 13 0
BBX 13 19 0 -1
BITMAP
00034000000000
01786820000000
0AB0017A800000
09900005796310
09886109003680
09008A73000090
0A325438B70640
1C56560763AC20
090067B3102920
090079A9988100
090076601A0000
0A214780073000
0C6758B5039000
09007B1A845500
09008108300900
09008100A00280
27005400530090
29228400195920
02662000024000
ENDCHAR
STARTCHAR s
ENCODING 115
SWIDTH 442 0
DWIDTH 11 0
BBX 11 19 0 -1
BITMAP
000000001100
02447A898A00
1A9929000540
3C5746100450
910095688A10
470087200000
073019100000
018284600000
009910900000
003800460000
000550074000
000091759000
00006A108100
00014B101900
6988A7800380
900035900560
900024889800
757889534000
052000000000
ENDCHAR
STARTCHAR t
ENCODING 116
SWIDTH 453 0
DWIDTH 11 0
BBX 12 18 -1 -1
BITMAP
079888B88896
180000721009
270000620008
0A3576568759
026366447142
000072018000
0000A9849000
000090018000
000072036000
000072026000
000093219000
0000A6649000
000081027000
000081045000
000090036000
000090009000
000079894000
000000100000
ENDCHAR
STARTCHAR u
ENCODING 117
SWIDTH 583 0
DWIDTH 14 0
BBX 14 18 0 -1
BITMAP
01899400289930
04600920A10190
02700900720270
03600900530260
05400900530180
0B983900888590
09002800830090
09004500450090
09006300270090
09006300270090
1C8865003A8772
09008100283181
180091657C8990
5500B8952007B0
910090260005A3
4A788014378B37
05637889698891
00782000001100
ENDCHAR
STARTCHAR v
ENCODING 118
SWIDTH 506 0
DWIDTH 12 0
BBX 13 18 0 -1
BITMAP
01310000000000
59694000999400
A0046000800A10
82028001800900
36009005403500
0800730C616300
0C974609367200
0A002827009000
05500A45026000
009009A1053000
009013C8863000
00A97380091000
00630460180000
00180810540000
00091900720000
00092900810000
000947D9700000
00016510000000
ENDCHAR
STARTCHAR w
ENCODING 119
SWIDTH 735 0
DWIDTH 18 0
BBX 19 18 -1 -1
BITMAP
00031000000000153000
0696A300023000B45A20
1A005500875A00900550
08103702900801800900
04600905B10715500900
0180082B95027B521800
01C9745A4B858B464700
00A00268190088006300
00630097071068009000
00180093035046009000
000802A985B9C6209000
000B96A005B094649000
00072090097190045000
00018180085490081000
00009720085860090000
00009820091C10090000
0000A4CB9305834A0000
00001651000026510000
ENDCHAR
STARTCHAR x
ENCODING 120
SWIDTH 483 0
DWIDTH 12 0
BBX 12 17 0 0
BITMAP
001200001000
098940088A50
8301800A0092
650082650083
08201A900560
01802D700900
0098B5395400
00589001A000
000960093000
001A00389000
008991A87300
009025902800
07300A700820
570074910191
A00090270037
920450090093
188910059940
ENDCHAR
STARTCHAR y
ENCODING 121
SWIDTH 484 0
DWIDTH 12 0
BBX 14 17 -1 0
BITMAP
00130000045200
078840000A4870
45009000360082
65004800810190
06500573700820
0081468C940900
002B6038054700
00093064009100
000082A0045000
00001C50090000
00000A88190000
00002701670000
00008200A00000
00038006400000
000A0009000000
00067009000000
00004994000000
ENDCHAR
STARTCHAR z
ENCODING 122
SWIDTH 458 0
DWIDTH 11 0
BBX 13 17 -1 0
BITMAP
00285686576000
00913284418100
00800062006A00
00902343549B10
003965C735C300
000004D4028000
00000916681000
00001900290000
00009200A10000
00067007400000
000A8809000000
00460257000000
01A001C4254000
1A2009A6639100
28002762005300
08507331318100
005D9888576000
ENDCHAR
STARTCHAR braceleft
ENCODING 123
SWIDTH 473 0
DWIDTH 11 0
BBX 11 21 0 -2
BITMAP
000000001500
000277688580
003921900090
007400800090
000900788850
000826490000
0006B3090000
000180064000
6887B880A000
900010548100
8000003D6000
95788692A000
131092237000
000591080000
000948480000
000800550000
008300C74320
009002713490
008505500090
0005CD974190
000000015810
ENDCHAR
STARTCHAR bar
ENCODING 124
SWIDTH 263 0
DWIDTH 6 0
BBX 6 21 0 -2
BITMAP
003410
0986A4
090018
090054
090063
090063
0A4345
1C5656
090063
090072
090071
090063
0C7646
0A2465
090072
090081
090081
180063
460046
0A99A1
001100
ENDCHAR
STARTCHAR braceright
ENCODING 125
SWIDTH 473 0
DWIDTH 11 0
BBX 12 21 0 -2
BITMAP
042000000000
477876740000
800046177000
81006300A000
2888A0063000
000567290000
0007117B0000
000900450000
007358C78890
009190100045
002C90000036
006596888592
002813810220
0008105B0000
000458591000
000190044000
0346B300A000
764217004500
90000902A100
55268CD82000
076200000000
ENDCHAR
STARTCHAR asciitilde
ENCODING 126
SWIDTH 456 0
DWIDTH 11 0
BBX 11 7 0 6
BITMAP
000000001000
003AA8077910
00901E280450
055082B31900
3806A0457200
5317540A8000
0891098C3000
ENDCHAR
STARTCHAR nonbreakingspace
ENCODING 160
SWIDTH 200 0
DWIDTH 5 0
BBX 1 1 0 0
BITMAP
00
ENDCHAR
STARTCHAR exclamdown
ENCODING 161
SWIDTH 259 0
DWIDTH 6 0
BBX 6 18 0 -1
BITMAP
006840
064091
062071
066492
002410
029960
0A0073
090081
090090
080081
090063
0879C3
080090
090090
080081
270053
294493
014410
ENDCHAR
STARTCHAR cent
ENCODING 162
SWIDTH 480 0
DWIDTH 12 0
BBX 11 22 0 -3
BITMAP
000039870000
000090053000
000080071000
000080086700
0000858A5460
0047B6900090
078200710190
486000259740
279029860000
1829B1000000
4A8590000000
460190000000
260090000000
2600B8510000
5300826C6100
3967805348A0
01CA71700090
00009A861090
000080099A20
000080080100
000080080000
000079880000
ENDCHAR
STARTCHAR sterling
ENCODING 163
SWIDTH 594 0
DWIDTH 14 0
BBX 14 18 0 -1
BITMAP
00000260000000
00001A49720000
0004D300269A00
0005B200000630
00038A86300820
0004500A697800
01077639003000
2A8C412B9A3000
72063018009000
72054017009000
296B200B885000
03399859030000
0007201B853581
00063028A45328
00081018710009
000A000A413228
000698A9885681
00000100000000
ENDCHAR
STARTCHAR currency
ENCODING 164
SWIDTH 640 0
DWIDTH 15 0
BBX 15 14 0 2
BITMAP
0288000100039400
1A13608892190750
53007774A7A10080
2920680A00820850
019699290009A200
002A0169921A9700
0491006719920640
081006A01A300380
02A1184797804800
009CA203A234C100
1931840072194930
53005A3480B20090
2902809B07580460
0499100598049700
ENDCHAR
STARTCHAR yen
ENCODING 165
SWIDTH 575 0
DWIDTH 14 0
BBX 14 17 0 0
BITMAP
00000000012000
04AA30000A8A50
28009000180092
640065007300A1
08300751900640
0090159B820900
00298129283800
000B2045007300
0026B3A512B100
00A3665B886900
01800008000900
00800006000900
0088B998B89700
00029003700000
00092009100000
00075009000000
00007996000000
ENDCHAR
STARTCHAR brokenbar
ENCODING 166
SWIDTH 258 0
DWIDTH 6 0
BBX 6 22 0 -3
BITMAP
069970
090073
090080
080080
0C8873
090071
080080
080071
180045
088891
000000
015510
0B4392
090071
090080
093371
1C5573
080080
080080
080053
1A2284
027720
ENDCHAR
STARTCHAR section
ENCODING 167
SWIDTH 474 0
DWIDTH 11 0
BBX 11 19 0 -1
BITMAP
000000000100
04557B888A10
193315400450
364002500350
1D5965688A10
09002B961000
091017039A20
04A942085A60
00805B870080
063044620630
080097801700
0D6379789400
0A7526003820
014873000450
08889BA60A30
270003539660
360002412640
093788876600
026100000000
ENDCHAR
STARTCHAR dieresis
ENCODING 168
SWIDTH 351 0
DWIDTH 8 0
BBX 9 4 0 18
BITMAP
3886178610
A009540640
7108350800
5886198800
ENDCHAR
STARTCHAR copyright
ENCODING 169
SWIDTH 719 0
DWIDTH 17 0
BBX 17 19 0 -1
BITMAP
003621320032001000
0083677A887A88A700
0A70002500160A6850
089588657756790260
082740341133180530
080440576782080530
0B64629121261B6550
191464D88895281550
080532644000080620
080632744000080720
080452644010070540
1C857443B8942B8560
080442AA5245080630
080620265571080710
180554632462283620
440294945496869450
1A8A20700070006A20
049989788878869000
001000200010022000
ENDCHAR
STARTCHAR ordfeminine
ENCODING 170
SWIDTH 455 0
DWIDTH 11 0
BBX 13 17 -1 0
BITMAP
00005757610000
00028872470000
00045900080000
00081640090000
000A0090072000
006700B0058000
00A683E3869000
00911586009000
0388687A008100
09730006202700
27384679600910
0955B301925900
00474000474000
002987788A0000
00620000054000
00630000063000
001A8888890000
ENDCHAR
STARTCHAR guillemotleft
ENCODING 171
SWIDTH 689 0
DWIDTH 17 0
BBX 16 11 0 3
BITMAP
0000197000002970
0002913800029147
0067000900770009
3930017648200186
6300391072004910
4A04B0005905A000
6697381075963810
2950018529400294
0058000900670009
0002906700038076
0000296000003950
ENDCHAR
STARTCHAR logicalnot
ENCODING 172
SWIDTH 591 0
DWIDTH 14 0
BBX 14 10 0 0
BITMAP
0A9999BA889A10
54000035016A90
63000025083056
372565446B0044
06743355272062
00000000062071
00000000062070
00000000080062
000000000687A2
00000000001200
ENDCHAR
STARTCHAR uni00AD
ENCODING 173
SWIDTH 465 0
DWIDTH 11 0
BBX 11 6 0 5
BITMAP
011002000100
19788AA99A20
540003500270
540003400270
1A6887888920
023001100200
ENDCHAR
STARTCHAR registered
ENCODING 174
SWIDTH 719 0
DWIDTH 17 0
BBX 17 19 0 -1
BITMAP
003621320032001000
0083677A887A88A700
0A70002500160A6850
089588657756790260
082740341133180530
080440031000080530
0B64629A78731B6550
191463881018281550
08053266A885080620
080632735020080720
080452635000070540
1C85726260002B8560
080443526000080630
080621883000080710
180554632462283620
440294945496869450
1A8A20700070006A20
049989788878869000
001000200010022000
ENDCHAR
STARTCHAR macron
ENCODING 175
SWIDTH 263 0
DWIDTH 6 0
BBX 7 4 0 18
BITMAP
02000100
86888910
80000440
78888910
ENDCHAR
STARTCHAR degree
ENCODING 176
SWIDTH 333 0
DWIDTH 8 0
BBX 8 7 0 9
BITMAP
00999930
05409180
2805A072
91297408
2B955A94
17121171
06767860
ENDCHAR
STARTCHAR plusminus
ENCODING 177
SWIDTH 464 0
DWIDTH 11 0
BBX 11 16 0 -3
BITMAP
000089940000
000450090000
010260080000
1A889BAB9B10
540003500270
540003500170
194786687830
035373551300
000440260000
000395850000
000014200000
08988A867900
450104532460
530002500180
370333343550
078657746800
ENDCHAR
STARTCHAR twosuperior
ENCODING 178
SWIDTH 324 0
DWIDTH 8 0
BBX 8 10 0 7
BITMAP
07643420
62023280
61000070
176A6780
00520610
02604400
1700A660
17052052
0C871052
03655660
ENDCHAR
STARTCHAR threesuperior
ENCODING 179
SWIDTH 332 0
DWIDTH 8 0
BBX 8 10 0 7
BITMAP
17643510
610222A1
610000B3
178AA781
00727061
00616051
026A8033
08217035
17005BD1
06764210
ENDCHAR
STARTCHAR acute
ENCODING 180
SWIDTH 202 0
DWIDTH 5 0
BBX 5 6 0 18
BITMAP
002100
00A840
072090
370820
A07300
697000
ENDCHAR
STARTCHAR mu
ENCODING 181
SWIDTH 582 0
DWIDTH 14 0
BBX 14 21 0 -4
BITMAP
00254000168500
05835A00A31570
04500900900350
03600900810440
03500800710350
05401800945280
08320900B53290
0B864900720180
09001700540180
08104500360090
08105400574390
09004500594490
0A2127225BA690
0B684CC7510990
080054530007A0
09007234145A54
090077798C77A2
09006410015400
46004500000000
19889200000000
00110000000000
ENDCHAR
STARTCHAR paragraph
ENCODING 182
SWIDTH 556 0
DWIDTH 13 0
BBX 13 19 0 -1
BITMAP
00000000650000
00000149559200
00019A5000A840
15894600009630
74100802897800
72001487A00900
3918C511A43810
1B923924A55730
193001C8800900
00570655A00900
00037400800900
00004921931820
00000196A57730
00000008800900
00000000800900
00000001700900
00000005400810
00000004833A20
00000000265100
ENDCHAR
STARTCHAR periodcentered
ENCODING 183
SWIDTH 215 0
DWIDTH 5 0
BBX 5 5 0 6
BITMAP
178710
360360
170440
196930
002000
ENDCHAR
STARTCHAR cedilla
ENCODING 184
SWIDTH 237 0
DWIDTH 6 0
BBX 6 8 0 -6
BITMAP
001885
003507
002617
004507
789868
8005C1
869510
030000
ENDCHAR
STARTCHAR onesuperior
ENCODING 185
SWIDTH 286 0
DWIDTH 7 0
BBX 7 10 0 7
BITMAP
00067200
00630800
47102A00
70056610
72580700
06460700
00060700
00060600
00160520
00067600
ENDCHAR
STARTCHAR ordmasculine
ENCODING 186
SWIDTH 476 0
DWIDTH 11 0
BBX 12 17 0 0
BITMAP
047447623600
192455966570
3600008389A0
380001590091
3C99C9980080
070080080070
070160080070
170263280370
4401B8B988B0
4B8950800090
271001600080
097999888A40
003200000100
01A78888A100
045000003600
036000003600
00888888A100
ENDCHAR
STARTCHAR guillemotright
ENCODING 187
SWIDTH 689 0
DWIDTH 17 0
BBX 16 11 0 3
BITMAP
0297000003960000
1A1480001A057000
3500293054003930
1950005929500068
0049100810580009
0003B12C0004B13B
0038198900482989
0860007718500176
2700292036003910
0A2380000A138000
0188000002870000
ENDCHAR
STARTCHAR onequarter
ENCODING 188
SWIDTH 790 0
DWIDTH 19 0
BBX 19 17 0 0
BITMAP
00028500000000000000
00360720287700000000
16400740330530000000
70027270520700000000
451B0150700700000000
03660251812500000000
00060254755400000000
00060165207000140000
00070077007000738000
00037717016005218400
0000001B425054082630
00000034264640290420
00000052080701988710
00000080070A57101C10
00000270170678655820
00000182360020073340
00000015500000077820
ENDCHAR
STARTCHAR onehalf
ENCODING 189
SWIDTH 771 0
DWIDTH 19 0
BBX 18 18 0 -1
BITMAP
000285000000000000
003607202877000000
164007403305300000
700272705207000000
451B01507007000000
036602518125000000
000602547554000000
000601652070000000
000700770075766671
000377170167000025
0000001B4257244344
0000003426414743A2
000000520800170350
000000800700800700
000002701706205766
000001823605607007
000000155002BC8647
000000000000210031
ENDCHAR
STARTCHAR threequarters
ENCODING 190
SWIDTH 817 0
DWIDTH 20 0
BBX 20 17 0 0
BITMAP
07643410000000000000
610232A1057760000000
610000A3070080000000
178AA782070070000000
00727051070340000000
00616042360620000000
026A9034756710000000
08217025700800023000
07004BD1701600074600
06764210704300712A20
00000004945206208281
00000006138172047070
00000007008250297870
000000070260C47004A0
00000044043077764780
00000037263012016361
00000002640000018780
ENDCHAR
STARTCHAR questiondown
ENCODING 191
SWIDTH 455 0
DWIDTH 11 0
BBX 11 18 0 -1
BITMAP
000003887000
000007108000
000008107000
000005888100
000000110000
000009788000
000008008000
00001B508000
000191578000
006810098000
496000390000
7A885A510000
550157941100
620036047A10
3A8481000440
0006D6200730
000012696900
000000004000
ENDCHAR
STARTCHAR Agrave
ENCODING 192
SWIDTH 507 0
DWIDTH 12 0
BBX 13 23 0 0
BITMAP
00002500000000
00076730000000
00090260000000
00036090000000
00008153000000
00002A81000000
00069940000000
00090075000000
00080069A00000
001800A0A00000
00630080910000
00C97280550000
009014812A0000
009009C7390000
03600982090000
08200836189A00
0B982CCA750360
09015617000080
18009107013560
55009357978810
9000C645700900
90018001800A20
3A994001999400
ENDCHAR
STARTCHAR Aacute
ENCODING 193
SWIDTH 507 0
DWIDTH 12 0
BBX 13 23 0 0
BITMAP
00000000200000
00000006790000
00000009054000
00000082380000
00000461900000
0000019A200000
00069940000000
00090075000000
00080069A00000
001800A0A00000
00630080910000
00C97280550000
009014812A0000
009009C7390000
03600982090000
08200836189A00
0B982CCA750360
09015617000080
18009107013560
55009357978810
9000C645700900
90018001800A20
3A994001999400
ENDCHAR
STARTCHAR Acircumflex
ENCODING 194
SWIDTH 507 0
DWIDTH 12 0
BBX 13 23 0 0
BITMAP
00003AB8000000
0000901E200000
00055082900000
002806A0460000
00531744090000
00089209950000
00069940000000
00090075000000
00080069A00000
001800A0A00000
00630080910000
00C97280550000
009014812A0000
009009C7390000
03600982090000
08200836189A00
0B982CCA750360
09015617000080
18009107013560
55009357978810
9000C645700900
90018001800A20
3A994001999400
ENDCHAR
STARTCHAR Atilde
ENCODING 195
SWIDTH 507 0
DWIDTH 12 0
BBX 13 24 0 0
BITMAP
00000000010000
0003AA90679100
000901E2804500
0055082B309000
02806A04572000
05317550980000
00891099C30000
00069940000000
00090075000000
00080069A00000
001800A0A00000
00630080910000
00C97280550000
009014812A0000
009009C7390000
03600982090000
08200836189A00
0B982CCA750360
09015617000080
18009107013560
55009357978810
9000C645700900
90018001800A20
3A994001999400
ENDCHAR
STARTCHAR Adieresis
ENCODING 196
SWIDTH 507 0
DWIDTH 12 0
BBX 13 22 0 0
BITMAP
00388717871000
00A00945055000
00710825080000
00498619890000
00000000000000
00069940000000
00090075000000
00080069A00000
001800A0A00000
00630080910000
00C97280550000
009014812A0000
009009C7390000
03600982090000
08200836189A00
0B982CCA750360
09015617000080
18009107013560
55009357978810
9000C645700900
90018001800A20
3A994001999400
ENDCHAR
STARTCHAR Aring
ENCODING 197
SWIDTH 507 0
DWIDTH 12 0
BBX 13 24 0 0
BITMAP
00006988500000
00018082900000
000911C1450000
00550947090000
001B987A680000
00080001560000
00058888910000
00069940000000
00090075000000
00080069A00000
001800A0A00000
00630080910000
00C97280550000
009014812A0000
009009C7390000
03600982090000
08200836189A00
0B982CCA750360
09015617000080
18009107013560
55009357978810
9000C645700900
90018001800A20
3A994001999400
ENDCHAR
STARTCHAR AE
ENCODING 198
SWIDTH 797 0
DWIDTH 19 0
BBX 21 18 -1 -1
BITMAP
0000000011999678558500
0000000A9C500A1A331900
0000002601A00908000810
0000008200A10914342900
0000038007500C89657400
00001D601E984900000000
000045385C200A12510000
00009100A6301A77580000
0002800735401700090000
000B101A16300810090000
004993587C984B78A40000
0080059107201900000000
0280056237301C98435100
1A101B755A202728564700
7400640008101817000900
2A10900009000A33311800
028970000598A77768A200
0000000000010000000000
ENDCHAR
STARTCHAR Ccedilla
ENCODING 199
SWIDTH 515 0
DWIDTH 12 0
BBX 13 24 0 -6
BITMAP
00010000000000
00899888301200
0180000A688A10
02600008000530
00935414000620
00B64B89889900
05B73900000000
07313900000000
06301900000000
07203600000000
0A004500000000
0C885700000000
09006300000000
18009166589900
6400B878310630
A1009008000450
2C997005256920
065389B9B32300
00661080800000
00000080800000
000488A6A10000
00080028700000
00047873000000
00003100000000
ENDCHAR
STARTCHAR Egrave
ENCODING 200
SWIDTH 490 0
DWIDTH 12 0
BBX 12 25 0 -1
BITMAP
000014200000
000484700000
000820800000
000190720000
000045180000
000009930000
000000000000
049985875691
0A0029564227
090045260009
081064234337
090069885581
0C8856000000
0A0046124000
090067768300
090072002700
090063104500
0C874B89A000
090155000000
090079A63440
090081846582
090072710045
360047422063
198896866980
000100000000
ENDCHAR
STARTCHAR Eacute
ENCODING 201
SWIDTH 490 0
DWIDTH 12 0
BBX 12 25 0 -1
BITMAP
000000020000
000000299200
000000812800
000005419100
000018081000
000008940000
000000000000
049985875691
0A0029564227
090045260009
081064234337
090069885581
0C8856000000
0A0046124000
090067768300
090072002700
090063104500
0C874B89A000
090155000000
090079A63440
090081846582
090072710045
360047422063
198896866980
000100000000
ENDCHAR
STARTCHAR Ecircumflex
ENCODING 202
SWIDTH 490 0
DWIDTH 12 0
BBX 12 25 0 -1
BITMAP
000049B80000
0000902E2000
000640828000
003707905600
006217540900
001891099400
000000000000
049985875691
0A0029564227
090045260009
081064234337
090069885581
0C8856000000
0A0046124000
090067768300
090072002700
090063104500
0C874B89A000
090155000000
090079A63440
090081846582
090072710045
360047422063
198896866980
000100000000
ENDCHAR
STARTCHAR Edieresis
ENCODING 203
SWIDTH 490 0
DWIDTH 12 0
BBX 12 23 0 -1
BITMAP
004886178600
00A009540640
008008340800
005885298800
000000000000
049985875691
0A0029564227
090045260009
081064234337
090069885581
0C8856000000
0A0046124000
090067768300
090072002700
090063104500
0C874B89A000
090155000000
090079A63440
090081846582
090072710045
360047422063
198896866980
000100000000
ENDCHAR
STARTCHAR Igrave
ENCODING 204
SWIDTH 266 0
DWIDTH 6 0
BBX 6 24 0 0
BITMAP
035000
868200
903500
460900
080620
03A800
000000
049982
0A0028
090045
081063
090063
0C9856
0A0045
090062
090072
090063
0C8746
090054
090072
090081
090072
360046
088891
ENDCHAR
STARTCHAR Iacute
ENCODING 205
SWIDTH 266 0
DWIDTH 6 0
BBX 8 24 0 0
BITMAP
00001200
00008780
00027082
00091560
00732800
0029A000
00000000
04998200
0A002800
09004500
08106300
09006300
0C985600
0A004500
09006200
09007200
09006300
0C874600
09005400
09007200
09008100
09007200
36004600
08889100
ENDCHAR
STARTCHAR Icircumflex
ENCODING 206
SWIDTH 266 0
DWIDTH 6 0
BBX 9 24 -1 0
BITMAP
000A9C1000
00630B7000
0180558100
0912C21900
1808180630
0686068800
0000000000
0049982000
00A0028000
0090045000
0081063000
0090063000
00C9856000
00A0045000
0090062000
0090072000
0090063000
00C8746000
0090054000
0090072000
0090081000
0090072000
0360046000
0088891000
ENDCHAR
STARTCHAR Idieresis
ENCODING 207
SWIDTH 266 0
DWIDTH 6 0
BBX 9 22 -1 0
BITMAP
2887168710
9108360460
5308170710
3987098900
0000000000
0049982000
00A0028000
0090045000
0081063000
0090063000
00C9856000
00A0045000
0090062000
0090072000
0090063000
00C8746000
0090054000
0090072000
0090081000
0090072000
0360046000
0088891000
ENDCHAR
STARTCHAR Eth
ENCODING 208
SWIDTH 669 0
DWIDTH 16 0
BBX 18 19 -1 -1
BITMAP
000000001520000000
0000008B9390000000
000003790039000000
0000009A0003910000
0000009491002C1000
000001801B20478000
000005B869A3504700
05732663092A200392
371466692901930063
5400000369000C12C0
27133316490085A874
057549FD683A3003A2
000004501AA7704800
000002600C2053A000
0000036009002A2000
000005400903910000
00000910092A000000
000003A8AA91000000
000000011640000000
ENDCHAR
STARTCHAR Ntilde
ENCODING 209
SWIDTH 598 0
DWIDTH 14 0
BBX 14 24 0 0
BITMAP
0000088C30A860
00002608954090
00009037690550
000820A6081800
0008062903C200
000387058B9000
00000000000000
04998510049981
0A002C700A0029
09004590090045
08106391091063
09006329090063
0C8858683C8856
0A0048137A0045
09006300A90063
090079006D0072
09006A20092063
0C87498785A746
090155C2019155
09007247008172
09008109001A81
090072054007A2
36004603603A46
198892008BD892
ENDCHAR
STARTCHAR Ograve
ENCODING 210
SWIDTH 612 0
DWIDTH 15 0
BBX 15 25 0 -1
BITMAP
0000003400000000
0000086910000000
0000190440000000
0000055080000000
0000009072000000
0000004980000000
0001000000000000
0089988831341000
0180000A688BB200
026000080005B100
009354140006B000
00B64B898B998100
05B739000A555500
073139000C534600
0630190009005400
0720360008104600
0A00450006201800
0C88570008875900
0900630006510900
1800904758B98900
6400B85B43107B00
A100900800005C20
2C9970051466AB20
0653899985597200
0066100000000000
ENDCHAR
STARTCHAR Oacute
ENCODING 211
SWIDTH 612 0
DWIDTH 15 0
BBX 15 25 0 -1
BITMAP
0000000002000000
0000000048910000
0000000090360000
0000000732900000
0000002709000000
00000009A3000000
0001000000000000
0089988831341000
0180000A688BB200
026000080005B100
009354140006B000
00B64B898B998100
05B739000A555500
073139000C534600
0630190009005400
0720360008104600
0A00450006201800
0C88570008875900
0900630006510900
1800904758B98900
6400B85B43107B00
A100900800005C20
2C9970051466AB20
0653899985597200
0066100000000000
ENDCHAR
STARTCHAR Ocircumflex
ENCODING 212
SWIDTH 612 0
DWIDTH 15 0
BBX 15 24 0 -1
BITMAP
00000099C3000000
0000036099000000
0000090376300000
0000821B50910000
0000807290360000
0001487058910000
0089988831341000
0180000A688BB200
026000080005B100
009354140006B000
00B64B898B998100
05B739000A555500
073139000C534600
0630190009005400
0720360008104600
0A00450006201800
0C88570008875900
0900630006510900
1800904758B98900
6400B85B43107B00
A100900800005C20
2C9970051466AB20
0653899985597200
0066100000000000
ENDCHAR
STARTCHAR Otilde
ENCODING 213
SWIDTH 612 0
DWIDTH 15 0
BBX 15 25 0 -1
BITMAP
0000000000010000
0000068B60878000
00000904D2707200
000082193C128000
0005508807290000
0007135820B60000
000289019AB10000
0089988831341000
0180000A688BB200
026000080005B100
009354140006B000
00B64B898B998100
05B739000A555500
073139000C534600
0630190009005400
0720360008104600
0A00450006201800
0C88570008875900
0900630006510900
1800904758B98900
6400B85B43107B00
A100900800005C20
2C9970051466AB20
0653899985597200
0066100000000000
ENDCHAR
STARTCHAR Odieresis
ENCODING 214
SWIDTH 612 0
DWIDTH 15 0
BBX 15 23 0 -1
BITMAP
0003887178710000
000A009450550000
0007108250800000
0004986198900000
0001000000000000
0089988831341000
0180000A688BB200
026000080005B100
009354140006B000
00B64B898B998100
05B739000A555500
073139000C534600
0630190009005400
0720360008104600
0A00450006201800
0C88570008875900
0900630006510900
1800904758B98900
6400B85B43107B00
A100900800005C20
2C9970051466AB20
0653899985597200
0066100000000000
ENDCHAR
STARTCHAR multiply
ENCODING 215
SWIDTH 421 0
DWIDTH 10 0
BBX 10 10 0 3
BITMAP
0013000000
059760A980
2900992074
5400086027
186002C781
00A7281A20
2918500194
4500B70064
0A26455590
0175007500
ENDCHAR
STARTCHAR Oslash
ENCODING 216
SWIDTH 612 0
DWIDTH 15 0
BBX 15 19 0 -1
BITMAP
0001000000000000
0089988830672000
0180000A6A64B200
0260000808003700
009354143600A200
00B64B8AB006B100
05B7390B701B5500
0731393649744600
0630188001805400
072039700B204600
0A003B006A201800
0C88A90088875900
090184B456510900
1808201C68B98900
6437009B43107B00
A290045800005C20
2C1009051466AB20
06602C9985597200
008BA10000000000
ENDCHAR
STARTCHAR Ugrave
ENCODING 217
SWIDTH 583 0
DWIDTH 14 0
BBX 14 24 0 -1
BITMAP
00000251000000
00006764000000
00009017000000
00002708000000
00000724400000
000001A9100000
01899400289930
04600920A10190
02700900720270
03600900530260
05400900530180
0B983900888590
09002800830090
09004500450090
09006300270090
09006300270090
1C8865003A8772
09008100283181
180091657C8990
5500B8952007B0
910090260005A3
4A788014378B37
05637889698891
00782000001100
ENDCHAR
STARTCHAR Uacute
ENCODING 218
SWIDTH 583 0
DWIDTH 14 0
BBX 14 25 0 -1
BITMAP
00000000200000
00000004891000
00000009036000
00000073280000
00000370900000
0000009A300000
00000000000000
01899400289930
04600920A10190
02700900720270
03600900530260
05400900530180
0B983900888590
09002800830090
09004500450090
09006300270090
09006300270090
1C8865003A8772
09008100283181
180091657C8990
5500B8952007B0
910090260005A3
4A788014378B37
05637889698891
00782000001100
ENDCHAR
STARTCHAR Ucircumflex
ENCODING 219
SWIDTH 583 0
DWIDTH 14 0
BBX 14 25 0 -1
BITMAP
0000078C400000
00001806B00000
00008118450000
00064097082000
00080548118000
00029803992000
00000000000000
01899400289930
04600920A10190
02700900720270
03600900530260
05400900530180
0B983900888590
09002800830090
09004500450090
09006300270090
09006300270090
1C8865003A8772
09008100283181
180091657C8990
5500B8952007B0
910090260005A3
4A788014378B37
05637889698891
00782000001100
ENDCHAR
STARTCHAR Udieresis
ENCODING 220
SWIDTH 583 0
DWIDTH 14 0
BBX 14 23 0 -1
BITMAP
00068843885000
00280178009000
00080358008000
00088934886000
00000000000000
01899400289930
04600920A10190
02700900720270
03600900530260
05400900530180
0B983900888590
09002800830090
09004500450090
09006300270090
09006300270090
1C8865003A8772
09008100283181
180091657C8990
5500B8952007B0
910090260005A3
4A788014378B37
05637889698891
00782000001100
ENDCHAR
STARTCHAR Yacute
ENCODING 221
SWIDTH 484 0
DWIDTH 12 0
BBX 14 22 -1 0
BITMAP
00000000200000
00000005891000
00000009045000
00000073280000
00000370900000
0013019A245200
078840000A4870
45009000360082
65004800810190
06500573700820
0081468C940900
002B6038054700
00093064009100
000082A0045000
00001C50090000
00000A88190000
00002701670000
00008200A00000
00038006400000
000A0009000000
00067009000000
00004994000000
ENDCHAR
STARTCHAR Thorn
ENCODING 222
SWIDTH 520 0
DWIDTH 13 0
BBX 13 18 0 -1
BITMAP
01785000000000
0A204800000000
0919B700000000
08920797200000
09900005B60000
0BB20007238950
0B47A926000090
09006489710270
09007202A86C20
09006378104740
0B544CB2017600
0A345518191000
09007203920000
09008168100000
09007950000000
37004700000000
1A55A300000000
00341000000000
ENDCHAR
STARTCHAR germandbls
ENCODING 223
SWIDTH 884 0
DWIDTH 21 0
BBX 22 19 0 -1
BITMAP
0000000011000000000200
02447A898A004359989870
1A99290005458A61800090
3C57461004599490800090
910095688A290055588870
470087200009201C510000
0730191000019004700000
0182846000006356810000
0099109000001D50360000
0038004600000840091000
000550074000009101A100
0000917590000027386400
00006A108100000B701900
00014B1019000027900650
6988A7800389997B930082
9000359005A500081800A1
90002488984500051B7B30
75788953401A4889843300
0520000000015000000000
ENDCHAR
STARTCHAR agrave
ENCODING 224
SWIDTH 507 0
DWIDTH 12 0
BBX 13 23 0 0
BITMAP
00002500000000
00076730000000
00090260000000
00036090000000
00008153000000
00002A81000000
00069940000000
00090075000000
00080069A00000
001800A0A00000
00630080910000
00C97280550000
009014812A0000
009009C7390000
03600982090000
08200836189A00
0B982CCA750360
09015617000080
18009107013560
55009357978810
9000C645700900
90018001800A20
3A994001999400
ENDCHAR
STARTCHAR aacute
ENCODING 225
SWIDTH 507 0
DWIDTH 12 0
BBX 13 23 0 0
BITMAP
00000000200000
00000006790000
00000009054000
00000082380000
00000461900000
0000019A200000
00069940000000
00090075000000
00080069A00000
001800A0A00000
00630080910000
00C97280550000
009014812A0000
009009C7390000
03600982090000
08200836189A00
0B982CCA750360
09015617000080
18009107013560
55009357978810
9000C645700900
90018001800A20
3A994001999400
ENDCHAR
STARTCHAR acircumflex
ENCODING 226
SWIDTH 507 0
DWIDTH 12 0
BBX 13 23 0 0
BITMAP
00003AB8000000
0000901E200000
00055082900000
002806A0460000
00531744090000
00089209950000
00069940000000
00090075000000
00080069A00000
001800A0A00000
00630080910000
00C97280550000
009014812A0000
009009C7390000
03600982090000
08200836189A00
0B982CCA750360
09015617000080
18009107013560
55009357978810
9000C645700900
90018001800A20
3A994001999400
ENDCHAR
STARTCHAR atilde
ENCODING 227
SWIDTH 507 0
DWIDTH 12 0
BBX 13 24 0 0
BITMAP
00000000010000
0003AA90679100
000901E2804500
0055082B309000
02806A04572000
05317550980000
00891099C30000
00069940000000
00090075000000
00080069A00000
001800A0A00000
00630080910000
00C97280550000
009014812A0000
009009C7390000
03600982090000
08200836189A00
0B982CCA750360
09015617000080
18009107013560
55009357978810
9000C645700900
90018001800A20
3A994001999400
ENDCHAR
STARTCHAR adieresis
ENCODING 228
SWIDTH 507 0
DWIDTH 12 0
BBX 13 22 0 0
BITMAP
00388717871000
00A00945055000
00710825080000
00498619890000
00000000000000
00069940000000
00090075000000
00080069A00000
001800A0A00000
00630080910000
00C97280550000
009014812A0000
009009C7390000
03600982090000
08200836189A00
0B982CCA750360
09015617000080
18009107013560
55009357978810
9000C645700900
90018001800A20
3A994001999400
ENDCHAR
STARTCHAR aring
ENCODING 229
SWIDTH 507 0
DWIDTH 12 0
BBX 13 24 0 0
BITMAP
00006988500000
00018082900000
000911C1450000
00550947090000
001B987A680000
00080001560000
00058888910000
00069940000000
00090075000000
00080069A00000
001800A0A00000
00630080910000
00C97280550000
009014812A0000
009009C7390000
03600982090000
08200836189A00
0B982CCA750360
09015617000080
18009107013560
55009357978810
9000C645700900
90018001800A20
3A994001999400
ENDCHAR
STARTCHAR ae
ENCODING 230
SWIDTH 797 0
DWIDTH 19 0
BBX 21 18 -1 -1
BITMAP
0000000011999678558500
0000000A9C500A1A331900
0000002601A00908000810
0000008200A10914342900
0000038007500C89657400
00001D601E984900000000
000045385C200A12510000
00009100A6301A77580000
0002800735401700090000
000B101A16300810090000
004993587C984B78A40000
0080059107201900000000
0280056237301C98435100
1A101B755A202728564700
7400640008101817000900
2A10900009000A33311800
028970000598A77768A200
0000000000010000000000
ENDCHAR
STARTCHAR ccedilla
ENCODING 231
SWIDTH 515 0
DWIDTH 12 0
BBX 13 24 0 -6
BITMAP
00010000000000
00899888301200
0180000A688A10
02600008000530
00935414000620
00B64B89889900
05B73900000000
07313900000000
06301900000000
07203600000000
0A004500000000
0C885700000000
09006300000000
18009166589900
6400B878310630
A1009008000450
2C997005256920
065389B9B32300
00661080800000
00000080800000
000488A6A10000
00080028700000
00047873000000
00003100000000
ENDCHAR
STARTCHAR egrave
ENCODING 232
SWIDTH 490 0
DWIDTH 12 0
BBX 12 25 0 -1
BITMAP
000014200000
000484700000
000820800000
000190720000
000045180000
000009930000
000000000000
049985875691
0A0029564227
090045260009
081064234337
090069885581
0C8856000000
0A0046124000
090067768300
090072002700
090063104500
0C874B89A000
090155000000
090079A63440
090081846582
090072710045
360047422063
198896866980
000100000000
ENDCHAR
STARTCHAR eacute
ENCODING 233
SWIDTH 490 0
DWIDTH 12 0
BBX 12 25 0 -1
BITMAP
000000020000
000000299200
000000812800
000005419100
000018081000
000008940000
000000000000
049985875691
0A0029564227
090045260009
081064234337
090069885581
0C8856000000
0A0046124000
090067768300
090072002700
090063104500
0C874B89A000
090155000000
090079A63440
090081846582
090072710045
360047422063
198896866980
000100000000
ENDCHAR
STARTCHAR ecircumflex
ENCODING 234
SWIDTH 490 0
DWIDTH 12 0
BBX 12 25 0 -1
BITMAP
000049B80000
0000902E2000
000640828000
003707905600
006217540900
001891099400
000000000000
049985875691
0A0029564227
090045260009
081064234337
090069885581
0C8856000000
0A0046124000
090067768300
090072002700
090063104500
0C874B89A000
090155000000
090079A63440
090081846582
090072710045
360047422063
198896866980
000100000000
ENDCHAR
STARTCHAR edieresis
ENCODING 235
SWIDTH 490 0
DWIDTH 12 0
BBX 12 23 0 -1
BITMAP
004886178600
00A009540640
008008340800
005885298800
000000000000
049985875691
0A0029564227
090045260009
081064234337
090069885581
0C8856000000
0A0046124000
090067768300
090072002700
090063104500
0C874B89A000
090155000000
090079A63440
090081846582
090072710045
360047422063
198896866980
000100000000
ENDCHAR
STARTCHAR igrave
ENCODING 236
SWIDTH 266 0
DWIDTH 6 0
BBX 6 24 0 0
BITMAP
035000
868200
903500
460900
080620
03A800
000000
049982
0A0028
090045
081063
090063
0C9856
0A0045
090062
090072
090063
0C8746
090054
090072
090081
090072
360046
088891
ENDCHAR
STARTCHAR iacute
ENCODING 237
SWIDTH 266 0
DWIDTH 6 0
BBX 8 24 0 0
BITMAP
00001200
00008780
00027082
00091560
00732800
0029A000
00000000
04998200
0A002800
09004500
08106300
09006300
0C985600
0A004500
09006200
09007200
09006300
0C874600
09005400
09007200
09008100
09007200
36004600
08889100
ENDCHAR
STARTCHAR icircumflex
ENCODING 238
SWIDTH 266 0
DWIDTH 6 0
BBX 9 24 -1 0
BITMAP
000A9C1000
00630B7000
0180558100
0912C21900
1808180630
0686068800
0000000000
0049982000
00A0028000
0090045000
0081063000
0090063000
00C9856000
00A0045000
0090062000
0090072000
0090063000
00C8746000
0090054000
0090072000
0090081000
0090072000
0360046000
0088891000
ENDCHAR
STARTCHAR idieresis
ENCODING 239
SWIDTH 266 0
DWIDTH 6 0
BBX 9 22 -1 0
BITMAP
2887168710
9108360460
5308170710
3987098900
0000000000
0049982000
00A0028000
0090045000
0081063000
0090063000
00C9856000
00A0045000
0090062000
0090072000
0090063000
00C8746000
0090054000
0090072000
0090081000
0090072000
0360046000
0088891000
ENDCHAR
STARTCHAR eth
ENCODING 240
SWIDTH 669 0
DWIDTH 16 0
BBX 18 19 -1 -1
BITMAP
000000001520000000
0000008B9390000000
000003790039000000
0000009A0003910000
0000009491002C1000
000001801B20478000
000005B869A3504700
05732663092A200392
371466692901930063
5400000369000C12C0
27133316490085A874
057549FD683A3003A2
000004501AA7704800
000002600C2053A000
0000036009002A2000
000005400903910000
00000910092A000000
000003A8AA91000000
000000011640000000
ENDCHAR
STARTCHAR ntilde
ENCODING 241
SWIDTH 598 0
DWIDTH 14 0
BBX 14 24 0 0
BITMAP
0000088C30A860
00002608954090
00009037690550
000820A6081800
0008062903C200
000387058B9000
00000000000000
04998510049981
0A002C700A0029
09004590090045
08106391091063
09006329090063
0C8858683C8856
0A0048137A0045
09006300A90063
090079006D0072
09006A20092063
0C87498785A746
090155C2019155
09007247008172
09008109001A81
090072054007A2
36004603603A46
198892008BD892
ENDCHAR
STARTCHAR ograve
ENCODING 242
SWIDTH 612 0
DWIDTH 15 0
BBX 15 25 0 -1
BITMAP
0000003400000000
0000086910000000
0000190440000000
0000055080000000
0000009072000000
0000004980000000
0001000000000000
0089988831341000
0180000A688BB200
026000080005B100
009354140006B000
00B64B898B998100
05B739000A555500
073139000C534600
0630190009005400
0720360008104600
0A00450006201800
0C88570008875900
0900630006510900
1800904758B98900
6400B85B43107B00
A100900800005C20
2C9970051466AB20
0653899985597200
0066100000000000
ENDCHAR
STARTCHAR oacute
ENCODING 243
SWIDTH 612 0
DWIDTH 15 0
BBX 15 25 0 -1
BITMAP
0000000002000000
0000000048910000
0000000090360000
0000000732900000
0000002709000000
00000009A3000000
0001000000000000
0089988831341000
0180000A688BB200
026000080005B100
009354140006B000
00B64B898B998100
05B739000A555500
073139000C534600
0630190009005400
0720360008104600
0A00450006201800
0C88570008875900
0900630006510900
1800904758B98900
6400B85B43107B00
A100900800005C20
2C9970051466AB20
0653899985597200
0066100000000000
ENDCHAR
STARTCHAR ocircumflex
ENCODING 244
SWIDTH 612 0
DWIDTH 15 0
BBX 15 24 0 -1
BITMAP
00000099C3000000
0000036099000000
0000090376300000
0000821B50910000
0000807290360000
0001487058910000
0089988831341000
0180000A688BB200
026000080005B100
009354140006B000
00B64B898B998100
05B739000A555500
073139000C534600
0630190009005400
0720360008104600
0A00450006201800
0C88570008875900
0900630006510900
1800904758B98900
6400B85B43107B00
A100900800005C20
2C9970051466AB20
0653899985597200
0066100000000000
ENDCHAR
STARTCHAR otilde
ENCODING 245
SWIDTH 612 0
DWIDTH 15 0
BBX 15 25 0 -1
BITMAP
0000000000010000
0000068B60878000
00000904D2707200
000082193C128000
0005508807290000
0007135820B60000
000289019AB10000
0089988831341000
0180000A688BB200
026000080005B100
009354140006B000
00B64B898B998100
05B739000A555500
073139000C534600
0630190009005400
0720360008104600
0A00450006201800
0C88570008875900
0900630006510900
1800904758B98900
6400B85B43107B00
A100900800005C20
2C9970051466AB20
0653899985597200
0066100000000000
ENDCHAR
STARTCHAR odieresis
ENCODING 246
SWIDTH 612 0
DWIDTH 15 0
BBX 15 23 0 -1
BITMAP
0003887178710000
000A009450550000
0007108250800000
0004986198900000
0001000000000000
0089988831341000
0180000A688BB200
026000080005B100
009354140006B000
00B64B898B998100
05B739000A555500
073139000C534600
0630190009005400
0720360008104600
0A00450006201800
0C88570008875900
0900630006510900
1800904758B98900
6400B85B43107B00
A100900800005C20
2C9970051466AB20
0653899985597200
0066100000000000
ENDCHAR
STARTCHAR divide
ENCODING 247
SWIDTH 457 0
DWIDTH 11 0
BBX 11 14 0 1
BITMAP
000178710000
000440450000
000260530000
000296920000
021003000100
29888BA99A10
620004400360
630005300360
296887888A10
033003100200
000396930000
000350430000
000360530000
000078710000
ENDCHAR
STARTCHAR oslash
ENCODING 248
SWIDTH 612 0
DWIDTH 15 0
BBX 15 19 0 -1
BITMAP
0001000000000000
0089988830672000
0180000A6A64B200
0260000808003700
009354143600A200
00B64B8AB006B100
05B7390B701B5500
0731393649744600
0630188001805400
072039700B204600
0A003B006A201800
0C88A90088875900
090184B456510900
1808201C68B98900
6437009B43107B00
A290045800005C20
2C1009051466AB20
06602C9985597200
008BA10000000000
ENDCHAR
STARTCHAR ugrave
ENCODING 249
SWIDTH 583 0
DWIDTH 14 0
BBX 14 24 0 -1
BITMAP
00000251000000
00006764000000
00009017000000
00002708000000
00000724400000
000001A9100000
01899400289930
04600920A10190
02700900720270
03600900530260
05400900530180
0B983900888590
09002800830090
09004500450090
09006300270090
09006300270090
1C8865003A8772
09008100283181
180091657C8990
5500B8952007B0
910090260005A3
4A788014378B37
05637889698891
00782000001100
ENDCHAR
STARTCHAR uacute
ENCODING 250
SWIDTH 583 0
DWIDTH 14 0
BBX 14 25 0 -1
BITMAP
00000000200000
00000004891000
00000009036000
00000073280000
00000370900000
0000009A300000
00000000000000
01899400289930
04600920A10190
02700900720270
03600900530260
05400900530180
0B983900888590
09002800830090
09004500450090
09006300270090
09006300270090
1C8865003A8772
09008100283181
180091657C8990
5500B8952007B0
910090260005A3
4A788014378B37
05637889698891
00782000001100
ENDCHAR
STARTCHAR ucircumflex
ENCODING 251
SWIDTH 583 0
DWIDTH 14 0
BBX 14 25 0 -1
BITMAP
0000078C400000
00001806B00000
00008118450000
00064097082000
00080548118000
00029803992000
00000000000000
01899400289930
04600920A10190
02700900720270
03600900530260
05400900530180
0B983900888590
09002800830090
09004500450090
09006300270090
09006300270090
1C8865003A8772
09008100283181
180091657C8990
5500B8952007B0
910090260005A3
4A788014378B37
05637889698891
00782000001100
ENDCHAR
STARTCHAR udieresis
ENCODING 252
SWIDTH 583 0
DWIDTH 14 0
BBX 14 23 0 -1
BITMAP
00068843885000
00280178009000
00080358008000
00088934886000
00000000000000
01899400289930
04600920A10190
02700900720270
03600900530260
05400900530180
0B983900888590
09002800830090
09004500450090
09006300270090
09006300270090
1C8865003A8772
09008100283181
180091657C8990
5500B8952007B0
910090260005A3
4A788014378B37
05637889698891
00782000001100
ENDCHAR
STARTCHAR yacute
ENCODING 253
SWIDTH 484 0
DWIDTH 12 0
BBX 14 22 -1 0
BITMAP
00000000200000
00000005891000
00000009045000
00000073280000
00000370900000
0013019A245200
078840000A4870
45009000360082
65004800810190
06500573700820
0081468C940900
002B6038054700
00093064009100
000082A0045000
00001C50090000
00000A88190000
00002701670000
00008200A00000
00038006400000
000A0009000000
00067009000000
00004994000000
ENDCHAR
STARTCHAR thorn
ENCODING 254
SWIDTH 520 0
DWIDTH 13 0
BBX 13 18 0 -1
BITMAP
01785000000000
0A204800000000
0919B700000000
08920797200000
09900005B60000
0BB20007238950
0B47A926000090
09006489710270
09007202A86C20
09006378104740
0B544CB2017600
0A345518191000
09007203920000
09008168100000
09007950000000
37004700000000
1A55A300000000
00341000000000
ENDCHAR
STARTCHAR ydieresis
ENCODING 255
SWIDTH 484 0
DWIDTH 12 0
BBX 14 21 -1 0
BITMAP
00068833884000
0037027900A000
00080448008000
00088925885000
00130000045200
078840000A4870
45009000360082
65004800810190
06500573700820
0081468C940900
002B6038054700
00093064009100
000082A0045000
00001C50090000
00000A88190000
00002701670000
00008200A00000
00038006400000
000A0009000000
00067009000000
00004994000000
ENDCHAR
STARTCHAR Amacron
ENCODING 256
SWIDTH 507 0
DWIDTH 12 0
BBX 13 21 0 0
BITMAP
00002000100000
00086888910000
00080000530000
00078888900000
00069940000000
00090075000000
00080069A00000
001800A0A00000
00630080910000
00C97280550000
009014812A0000
009009C7390000
03600982090000
08200836189A00
0B982CCA750360
09015617000080
18009107013560
55009357978810
9000C645700900
90018001800A20
3A994001999400
ENDCHAR
STARTCHAR amacron
ENCODING 257
SWIDTH 507 0
DWIDTH 12 0
BBX 13 21 0 0
BITMAP
00002000100000
00086888910000
00080000530000
00078888900000
00069940000000
00090075000000
00080069A00000
001800A0A00000
00630080910000
00C97280550000
009014812A0000
009009C7390000
03600982090000
08200836189A00
0B982CCA750360
09015617000080
18009107013560
55009357978810
9000C645700900
90018001800A20
3A994001999400
ENDCHAR
STARTCHAR Abreve
ENCODING 258
SWIDTH 507 0
DWIDTH 12 0
BBX 13 23 0 0
BITMAP
00388106830000
009052080A0000
00714326090000
00441B89940000
00274700E10000
0005B889500000
00069940000000
00090075000000
00080069A00000
001800A0A00000
00630080910000
00C97280550000
009014812A0000
009009C7390000
03600982090000
08200836189A00
0B982CCA750360
09015617000080
18009107013560
55009357978810
9000C645700900
90018001800A20
3A994001999400
ENDCHAR
STARTCHAR abreve
ENCODING 259
SWIDTH 507 0
DWIDTH 12 0
BBX 13 23 0 0
BITMAP
00388106830000
009052080A0000
00714326090000
00441B89940000
00274700E10000
0005B889500000
00069940000000
00090075000000
00080069A00000
001800A0A00000
00630080910000
00C97280550000
009014812A0000
009009C7390000
03600982090000
08200836189A00
0B982CCA750360
09015617000080
18009107013560
55009357978810
9000C645700900
90018001800A20
3A994001999400
ENDCHAR
STARTCHAR Aogonek
ENCODING 260
SWIDTH 507 0
DWIDTH 12 0
BBX 13 22 0 -5
BITMAP
00069940000000
00090075000000
00080069A00000
001800A0A00000
00630080910000
00C97280550000
009014812A0000
009009C7390000
03600982090000
08200836189A00
0B982CCA750360
09015617000080
18009107013560
55009357978810
9000C645700900
90018001800A20
3A994001C9B600
00000001708000
0000000642B200
00000000D91760
00000000193080
00000000009930
ENDCHAR
STARTCHAR aogonek
ENCODING 261
SWIDTH 507 0
DWIDTH 12 0
BBX 13 22 0 -5
BITMAP
00069940000000
00090075000000
00080069A00000
001800A0A00000
00630080910000
00C97280550000
009014812A0000
009009C7390000
03600982090000
08200836189A00
0B982CCA750360
09015617000080
18009107013560
55009357978810
9000C645700900
90018001800A20
3A994001C9B600
00000001708000
0000000642B200
00000000D91760
00000000193080
00000000009930
ENDCHAR
STARTCHAR Cacute
ENCODING 262
SWIDTH 515 0
DWIDTH 12 0
BBX 13 25 0 -1
BITMAP
00000000210000
00000001A84000
00000007209000
00000037092000
000000A0730000
00000079700000
00010000000000
00899888301200
0180000A688A10
02600008000530
00935414000620
00B64B89889900
05B73900000000
07313900000000
06301900000000
07203600000000
0A004500000000
0C885700000000
09006300000000
18009166589900
6400B878310630
A1009008000450
2C997005256920
06538999632300
00661000000000
ENDCHAR
STARTCHAR cacute
ENCODING 263
SWIDTH 515 0
DWIDTH 12 0
BBX 13 25 0 -1
BITMAP
00000000210000
00000001A84000
00000007209000
00000037092000
000000A0730000
00000079700000
00010000000000
00899888301200
0180000A688A10
02600008000530
00935414000620
00B64B89889900
05B73900000000
07313900000000
06301900000000
07203600000000
0A004500000000
0C885700000000
09006300000000
18009166589900
6400B878310630
A1009008000450
2C997005256920
06538999632300
00661000000000
ENDCHAR
STARTCHAR Ccircumflex
ENCODING 264
SWIDTH 515 0
DWIDTH 12 0
BBX 13 24 0 -1
BITMAP
000000A9B10000
00000630B70000
00001805581000
0000912C219000
00018081806300
00016850788000
00899888301200
0180000A688A10
02600008000530
00935414000620
00B64B89889900
05B73900000000
07313900000000
06301900000000
07203600000000
0A004500000000
0C885700000000
09006300000000
18009166589900
6400B878310630
A1009008000450
2C997005256920
06538999632300
00661000000000
ENDCHAR
STARTCHAR ccircumflex
ENCODING 265
SWIDTH 515 0
DWIDTH 12 0
BBX 13 24 0 -1
BITMAP
000000A9B10000
00000630B70000
00001805581000
0000912C219000
00018081806300
00016850788000
00899888301200
0180000A688A10
02600008000530
00935414000620
00B64B89889900
05B73900000000
07313900000000
06301900000000
07203600000000
0A004500000000
0C885700000000
09006300000000
18009166589900
6400B878310630
A1009008000450
2C997005256920
06538999632300
00661000000000
ENDCHAR
STARTCHAR Cdotaccent
ENCODING 266
SWIDTH 515 0
DWIDTH 12 0
BBX 13 23 0 -1
BITMAP
00000178810000
00000720720000
00000350800000
000001A8800000
00010000000000
00899888301200
0180000A688A10
02600008000530
00935414000620
00B64B89889900
05B73900000000
07313900000000
06301900000000
07203600000000
0A004500000000
0C885700000000
09006300000000
18009166589900
6400B878310630
A1009008000450
2C997005256920
06538999632300
00661000000000
ENDCHAR
STARTCHAR cdotaccent
ENCODING 267
SWIDTH 515 0
DWIDTH 12 0
BBX 13 23 0 -1
BITMAP
00000178810000
00000720720000
00000350800000
000001A8800000
00010000000000
00899888301200
0180000A688A10
02600008000530
00935414000620
00B64B89889900
05B73900000000
07313900000000
06301900000000
07203600000000
0A004500000000
0C885700000000
09006300000000
18009166589900
6400B878310630
A1009008000450
2C997005256920
06538999632300
00661000000000
ENDCHAR
STARTCHAR Ccaron
ENCODING 268
SWIDTH 515 0
DWIDTH 12 0
BBX 13 25 0 -1
BITMAP
00000200120000
00019680968000
00027073608100
0000822B037000
00001806390000
00000812D30000
0001028A700000
00899888301200
0180000A688A10
02600008000530
00935414000620
00B64B89889900
05B73900000000
07313900000000
06301900000000
07203600000000
0A004500000000
0C885700000000
09006300000000
18009166589900
6400B878310630
A1009008000450
2C997005256920
06538999632300
00661000000000
ENDCHAR
STARTCHAR ccaron
ENCODING 269
SWIDTH 515 0
DWIDTH 12 0
BBX 13 25 0 -1
BITMAP
00000200120000
00019680968000
00027073608100
0000822B037000
00001806390000
00000812D30000
0001028A700000
00899888301200
0180000A688A10
02600008000530
00935414000620
00B64B89889900
05B73900000000
07313900000000
06301900000000
07203600000000
0A004500000000
0C885700000000
09006300000000
18009166589900
6400B878310630
A1009008000450
2C997005256920
06538999632300
00661000000000
ENDCHAR
STARTCHAR Dcaron
ENCODING 270
SWIDTH 520 0
DWIDTH 12 0
BBX 13 26 0 -1
BITMAP
00012001200000
0039760A760000
00540863090000
00090490640000
00036083700000
0000905C100000
000048A5000000
00004400000000
04AC5730000000
0A640092000000
09910019400000
08295000A50000
09008601982000
0C885D4711A200
0A004586001850
09006205800180
09007200860950
09006304989490
0C874687001950
09015C7911A200
09007701693000
09008100760000
09007209400000
36004683000000
1988C670000000
00015600000000
ENDCHAR
STARTCHAR dcaron
ENCODING 271
SWIDTH 520 0
DWIDTH 12 0
BBX 13 26 0 -1
BITMAP
00012001200000
0039760A760000
00540863090000
00090490640000
00036083700000
0000905C100000
000048A5000000
00004400000000
04AC5730000000
0A640092000000
09910019400000
08295000A50000
09008601982000
0C885D4711A200
0A004586001850
09006205800180
09007200860950
09006304989490
0C874687001950
09015C7911A200
09007701693000
09008100760000
09007209400000
36004683000000
1988C670000000
00015600000000
ENDCHAR
STARTCHAR Dcroat
ENCODING 272
SWIDTH 669 0
DWIDTH 16 0
BBX 18 19 -1 -1
BITMAP
000000001520000000
0000008B9390000000
000003790039000000
0000009A0003910000
0000009491002C1000
000001801B20478000
000005B869A3504700
05732663092A200392
371466692901930063
5400000369000C12C0
27133316490085A874
057549FD683A3003A2
000004501AA7704800
000002600C2053A000
0000036009002A2000
000005400903910000
00000910092A000000
000003A8AA91000000
000000011640000000
ENDCHAR
STARTCHAR dcroat
ENCODING 273
SWIDTH 669 0
DWIDTH 16 0
BBX 18 19 -1 -1
BITMAP
000000001520000000
0000008B9390000000
000003790039000000
0000009A0003910000
0000009491002C1000
000001801B20478000
000005B869A3504700
05732663092A200392
371466692901930063
5400000369000C12C0
27133316490085A874
057549FD683A3003A2
000004501AA7704800
000002600C2053A000
0000036009002A2000
000005400903910000
00000910092A000000
000003A8AA91000000
000000011640000000
ENDCHAR
STARTCHAR Emacron
ENCODING 274
SWIDTH 490 0
DWIDTH 12 0
BBX 12 23 0 -1
BITMAP
000110001000
000978879000
002600007100
000888888000
000000000000
049985875691
0A0029564227
090045260009
081064234337
090069885581
0C8856000000
0A0046124000
090067768300
090072002700
090063104500
0C874B89A000
090155000000
090079A63440
090081846582
090072710045
360047422063
198896866980
000100000000
ENDCHAR
STARTCHAR emacron
ENCODING 275
SWIDTH 490 0
DWIDTH 12 0
BBX 12 23 0 -1
BITMAP
000110001000
000978879000
002600007100
000888888000
000000000000
049985875691
0A0029564227
090045260009
081064234337
090069885581
0C8856000000
0A0046124000
090067768300
090072002700
090063104500
0C874B89A000
090155000000
090079A63440
090081846582
090072710045
360047422063
198896866980
000100000000
ENDCHAR
STARTCHAR Ebreve
ENCODING 276
SWIDTH 490 0
DWIDTH 12 0
BBX 12 25 0 -1
BITMAP
001883048500
007217080640
003608080810
00080A898800
000939009600
0003A9889000
000000000000
049985875691
0A0029564227
090045260009
081064234337
090069885581
0C8856000000
0A0046124000
090067768300
090072002700
090063104500
0C874B89A000
090155000000
090079A63440
090081846582
090072710045
360047422063
198896866980
000100000000
ENDCHAR
STARTCHAR ebreve
ENCODING 277
SWIDTH 490 0
DWIDTH 12 0
BBX 12 25 0 -1
BITMAP
001883048500
007217080640
003608080810
00080A898800
000939009600
0003A9889000
000000000000
049985875691
0A0029564227
090045260009
081064234337
090069885581
0C8856000000
0A0046124000
090067768300
090072002700
090063104500
0C874B89A000
090155000000
090079A63440
090081846582
090072710045
360047422063
198896866980
000100000000
ENDCHAR
STARTCHAR Edotaccent
ENCODING 278
SWIDTH 490 0
DWIDTH 12 0
BBX 12 23 0 -1
BITMAP
000048850000
000090090000
000080080000
000068850000
000000000000
049985875691
0A0029564227
090045260009
081064234337
090069885581
0C8856000000
0A0046124000
090067768300
090072002700
090063104500
0C874B89A000
090155000000
090079A63440
090081846582
090072710045
360047422063
198896866980
000100000000
ENDCHAR
STARTCHAR edotaccent
ENCODING 279
SWIDTH 490 0
DWIDTH 12 0
BBX 12 23 0 -1
BITMAP
000048850000
000090090000
000080080000
000068850000
000000000000
049985875691
0A0029564227
090045260009
081064234337
090069885581
0C8856000000
0A0046124000
090067768300
090072002700
090063104500
0C874B89A000
090155000000
090079A63440
090081846582
090072710045
360047422063
198896866980
000100000000
ENDCHAR
STARTCHAR Eogonek
ENCODING 280
SWIDTH 490 0
DWIDTH 12 0
BBX 12 22 0 -5
BITMAP
049985875691
0A0029564227
090045260009
081064234337
090069885581
0C8856000000
0A0046124000
090067768300
090072002700
090063104500
0C874B89A000
090155000000
090079A63440
090081846582
090072710045
360047422063
1988969A6B80
000100722600
000000A18800
0000004D5283
000000049044
000000002A80
ENDCHAR
STARTCHAR eogonek
ENCODING 281
SWIDTH 490 0
DWIDTH 12 0
BBX 12 22 0 -5
BITMAP
049985875691
0A0029564227
090045260009
081064234337
090069885581
0C8856000000
0A0046124000
090067768300
090072002700
090063104500
0C874B89A000
090155000000
090079A63440
090081846582
090072710045
360047422063
1988969A6B80
000100722600
000000A18800
0000004D5283
000000049044
000000002A80
ENDCHAR
STARTCHAR Ecaron
ENCODING 282
SWIDTH 490 0
DWIDTH 12 0
BBX 12 25 0 -1
BITMAP
000020002000
000968086900
001806370720
000731C13800
000090549000
0000711D4000
000028A80000
049985875691
0A0029564227
090045260009
081064234337
090069885581
0C8856000000
0A0046124000
090067768300
090072002700
090063104500
0C874B89A000
090155000000
090079A63440
090081846582
090072710045
360047422063
198896866980
000100000000
ENDCHAR
STARTCHAR ecaron
ENCODING 283
SWIDTH 490 0
DWIDTH 12 0
BBX 12 25 0 -1
BITMAP
000020002000
000968086900
001806370720
000731C13800
000090549000
0000711D4000
000028A80000
049985875691
0A0029564227
090045260009
081064234337
090069885581
0C8856000000
0A0046124000
090067768300
090072002700
090063104500
0C874B89A000
090155000000
090079A63440
090081846582
090072710045
360047422063
198896866980
000100000000
ENDCHAR
STARTCHAR Gcircumflex
ENCODING 284
SWIDTH 557 0
DWIDTH 13 0
BBX 14 24 0 -1
BITMAP
000003AA900000
00000801E30000
00004508290000
0002806A047000
00054184509000
00018920985000
00899888301200
0180000A688A10
02600008000530
00935414000620
00B64B89889900
05B73900000000
07313900000000
06301900298940
07203600810080
0A004500440260
0C885700350170
09006300598590
18009166A40090
6400B878650080
A1009008260090
2C997005640081
06538999798960
00661000000000
ENDCHAR
STARTCHAR gcircumflex
ENCODING 285
SWIDTH 557 0
DWIDTH 13 0
BBX 14 24 0 -1
BITMAP
000003AA900000
00000801E30000
00004508290000
0002806A047000
00054184509000
00018920985000
00899888301200
0180000A688A10
02600008000530
00935414000620
00B64B89889900
05B73900000000
07313900000000
06301900298940
07203600810080
0A004500440260
0C885700350170
09006300598590
18009166A40090
6400B878650080
A1009008260090
2C997005640081
06538999798960
00661000000000
ENDCHAR
STARTCHAR Gbreve
ENCODING 286
SWIDTH 557 0
DWIDTH 13 0
BBX 14 24 0 -1
BITMAP
00038810583000
00090430809100
00062341709000
000351B8896000
000184700D2000
00014B88960000
00899888301200
0180000A688A10
02600008000530
00935414000620
00B64B89889900
05B73900000000
07313900000000
06301900298940
07203600810080
0A004500440260
0C885700350170
09006300598590
18009166A40090
6400B878650080
A1009008260090
2C997005640081
06538999798960
00661000000000
ENDCHAR
STARTCHAR gbreve
ENCODING 287
SWIDTH 557 0
DWIDTH 13 0
BBX 14 24 0 -1
BITMAP
00038810583000
00090430809100
00062341709000
000351B8896000
000184700D2000
00014B88960000
00899888301200
0180000A688A10
02600008000530
00935414000620
00B64B89889900
05B73900000000
07313900000000
06301900298940
07203600810080
0A004500440260
0C885700350170
09006300598590
18009166A40090
6400B878650080
A1009008260090
2C997005640081
06538999798960
00661000000000
ENDCHAR
STARTCHAR Gdotaccent
ENCODING 288
SWIDTH 557 0
DWIDTH 13 0
BBX 14 23 0 -1
BITMAP
00000178810000
00000730630000
00000260800000
000001A8900000
00010000000000
00899888301200
0180000A688A10
02600008000530
00935414000620
00B64B89889900
05B73900000000
07313900000000
06301900298940
07203600810080
0A004500440260
0C885700350170
09006300598590
18009166A40090
6400B878650080
A1009008260090
2C997005640081
06538999798960
00661000000000
ENDCHAR
STARTCHAR gdotaccent
ENCODING 289
SWIDTH 557 0
DWIDTH 13 0
BBX 14 23 0 -1
BITMAP
00000178810000
00000730630000
00000260800000
000001A8900000
00010000000000
00899888301200
0180000A688A10
02600008000530
00935414000620
00B64B89889900
05B73900000000
07313900000000
06301900298940
07203600810080
0A004500440260
0C885700350170
09006300598590
18009166A40090
6400B878650080
A1009008260090
2C997005640081
06538999798960
00661000000000
ENDCHAR
STARTCHAR Gcommaaccent
ENCODING 290
SWIDTH 557 0
DWIDTH 13 0
BBX 14 25 0 -7
BITMAP
00010000000000
00899888301200
0180000A688A10
02600008000530
00935414000620
00B64B89889900
05B73900000000
07313900000000
06301900298940
07203600810080
0A004500440260
0C885700350170
09006300598590
18009166A40090
6400B878650080
A1009008260090
2C997005640081
06538999798960
00661020000000
00000489100000
00000904600000
00007328000000
00037090000000
00019A30000000
00000100000000
ENDCHAR
STARTCHAR gcommaaccent
ENCODING 291
SWIDTH 557 0
DWIDTH 13 0
BBX 14 25 0 -7
BITMAP
00010000000000
00899888301200
0180000A688A10
02600008000530
00935414000620
00B64B89889900
05B73900000000
07313900000000
06301900298940
07203600810080
0A004500440260
0C885700350170
09006300598590
18009166A40090
6400B878650080
A1009008260090
2C997005640081
06538999798960
00661020000000
00000489100000
00000904600000
00007328000000
00037090000000
00019A30000000
00000100000000
ENDCHAR
STARTCHAR Hcircumflex
ENCODING 292
SWIDTH 611 0
DWIDTH 15 0
BBX 15 23 0 0
BITMAP
000002AA90000000
00000811E4000000
0000460829000000
0002805B03800000
0004408360900000
0000893088500000
0499820019998100
0A00280055004600
0900450018007200
0810630009008000
0900630009009000
0C9856002B757200
0A00450038028200
0900630008009100
090072000925BA20
090064015C940180
0C874DB622600090
0900558001546950
0900726378959100
09008A9737009000
0900730045009000
3600460082007200
0888910029997000
ENDCHAR
STARTCHAR hcircumflex
ENCODING 293
SWIDTH 611 0
DWIDTH 15 0
BBX 15 23 0 0
BITMAP
000002AA90000000
00000811E4000000
0000460829000000
0002805B03800000
0004408360900000
0000893088500000
0499820019998100
0A00280055004600
0900450018007200
0810630009008000
0900630009009000
0C9856002B757200
0A00450038028200
0900630008009100
090072000925BA20
090064015C940180
0C874DB622600090
0900558001546950
0900726378959100
09008A9737009000
0900730045009000
3600460082007200
0888910029997000
ENDCHAR
STARTCHAR Hbar
ENCODING 294
SWIDTH 706 0
DWIDTH 17 0
BBX 17 17 0 0
BITMAP
001899500059993000
005500A000A000A000
013700900090019000
099700D888AC88B840
444500E10008011090
447A85B00008000090
09B200A78887887580
016400A10083047410
004500900072399700
005400A003AC510900
007985AD7508000810
007201971006267A00
005401961589755000
006301C99490035000
008100900090027000
00A000900190019000
004989500079992000
ENDCHAR
STARTCHAR hbar
ENCODING 295
SWIDTH 706 0
DWIDTH 17 0
BBX 17 17 0 0
BITMAP
001899500059993000
005500A000A000A000
013700900090019000
099700D888AC88B840
444500E10008011090
447A85B00008000090
09B200A78887887580
016400A10083047410
004500900072399700
005400A003AC510900
007985AD7508000810
007201971006267A00
005401961589755000
006301C99490035000
008100900090027000
00A000900190019000
004989500079992000
ENDCHAR
STARTCHAR Itilde
ENCODING 296
SWIDTH 266 0
DWIDTH 6 0
BBX 11 23 -2 0
BITMAP
001A9B039930
00720B580180
028064870810
1903C2274500
17082807A000
0684078C5000
000499820000
000A00280000
000900450000
000810630000
000900630000
000C98560000
000A00450000
000900620000
000900720000
000900630000
000C87460000
000900540000
000900720000
000900810000
000900720000
003600460000
000888910000
ENDCHAR
STARTCHAR itilde
ENCODING 297
SWIDTH 266 0
DWIDTH 6 0
BBX 11 23 -2 0
BITMAP
001A9B039930
00720B580180
028064870810
1903C2274500
17082807A000
0684078C5000
000499820000
000A00280000
000900450000
000810630000
000900630000
000C98560000
000A00450000
000900620000
000900720000
000900630000
000C87460000
000900540000
000900720000
000900810000
000900720000
003600460000
000888910000
ENDCHAR
STARTCHAR Imacron
ENCODING 298
SWIDTH 266 0
DWIDTH 6 0
BBX 7 21 0 0
BITMAP
02000100
67888830
80000170
58888920
04998200
0A002800
09004500
08106300
09006300
0C985600
0A004500
09006200
09007200
09006300
0C874600
09005400
09007200
09008100
09007200
36004600
08889100
ENDCHAR
STARTCHAR imacron
ENCODING 299
SWIDTH 266 0
DWIDTH 6 0
BBX 7 21 0 0
BITMAP
02000100
67888830
80000170
58888920
04998200
0A002800
09004500
08106300
09006300
0C985600
0A004500
09006200
09007200
09006300
0C874600
09005400
09007200
09008100
09007200
36004600
08889100
ENDCHAR
STARTCHAR Ibreve
ENCODING 300
SWIDTH 266 0
DWIDTH 6 0
BBX 9 24 -1 0
BITMAP
1784038600
5408080460
1708080720
0809899800
0939008800
029A889000
0000000000
0049982000
00A0028000
0090045000
0081063000
0090063000
00C9856000
00A0045000
0090062000
0090072000
0090063000
00C8746000
0090054000
0090072000
0090081000
0090072000
0360046000
0088891000
ENDCHAR
STARTCHAR ibreve
ENCODING 301
SWIDTH 266 0
DWIDTH 6 0
BBX 9 24 -1 0
BITMAP
1784038600
5408080460
1708080720
0809899800
0939008800
029A889000
0000000000
0049982000
00A0028000
0090045000
0081063000
0090063000
00C9856000
00A0045000
0090062000
0090072000
0090063000
00C8746000
0090054000
0090072000
0090081000
0090072000
0360046000
0088891000
ENDCHAR
STARTCHAR Iogonek
ENCODING 302
SWIDTH 266 0
DWIDTH 6 0
BBX 6 23 0 -6
BITMAP
049982
0A0028
090045
081063
090063
0C9856
0A0045
090062
090072
090063
0C8746
090054
090072
090081
090072
360046
0B99A1
090810
631800
678950
0B6048
007536
000660
ENDCHAR
STARTCHAR iogonek
ENCODING 303
SWIDTH 266 0
DWIDTH 6 0
BBX 6 23 0 -6
BITMAP
049982
0A0028
090045
081063
090063
0C9856
0A0045
090062
090072
090063
0C8746
090054
090072
090081
090072
360046
0B99A1
090810
631800
678950
0B6048
007536
000660
ENDCHAR
STARTCHAR Idotaccent
ENCODING 304
SWIDTH 266 0
DWIDTH 6 0
BBX 6 22 0 0
BITMAP
028870
091080
053080
039870
000000
049982
0A0028
090045
081063
090063
0C9856
0A0045
090062
090072
090063
0C8746
090054
090072
090081
090072
360046
088891
ENDCHAR
STARTCHAR dotlessi
ENCODING 305
SWIDTH 266 0
DWIDTH 6 0
BBX 6 17 0 0
BITMAP
049982
0A0028
090045
081063
090063
0C9856
0A0045
090062
090072
090063
0C8746
090054
090072
090081
090072
360046
088891
ENDCHAR
STARTCHAR IJ
ENCODING 306
SWIDTH 750 0
DWIDTH 18 0
BBX 18 18 0 -1
BITMAP
049982000000079970
0A0028000000190064
090045000000090081
081063000000090090
090063000000090090
0C98560000004B8781
0A0045000000460091
090062000000180090
090072059600090090
090063660910180090
0C87469002914B8682
09005477002A460190
090072056283A70090
090081009A10790090
090072003A10077090
360046000290009081
08889100005508B980
000000000009951000
ENDCHAR
STARTCHAR ij
ENCODING 307
SWIDTH 749 0
DWIDTH 18 0
BBX 18 18 0 -1
BITMAP
049982000000079970
0A0028000000190064
090045000000090081
081063000000090090
090063000000090090
0C98560000004B8781
0A0045000000460091
090062000000180090
090072059600090090
090063660910180090
0C87469002914B8682
09005477002A460190
090072056283A70090
090081009A10790090
090072003A10077090
360046000290009081
08889100005508B980
000000000009951000
ENDCHAR
STARTCHAR Jcircumflex
ENCODING 308
SWIDTH 484 0
DWIDTH 12 0
BBX 14 24 -1 -1
BITMAP
00000000A9B100
0000000630B700
00000018055810
000000912C2190
00000180818063
00000068507880
00000002999300
00000007300A00
00000004400900
00000004501800
00000005301800
00000009984900
0000000A101900
00000007202700
018A1006303600
0A228007202700
5400660A983900
2A300579001900
0091568B103600
002B700C304500
00076001A32700
00006500450900
00000911C89400
000003A9210000
ENDCHAR
STARTCHAR jcircumflex
ENCODING 309
SWIDTH 482 0
DWIDTH 12 0
BBX 14 24 -1 -1
BITMAP
00000000A9B100
0000000630B700
00000018055810
000000912C2190
00000180818063
00000068507880
00000002999300
00000007300A00
00000004400900
00000004501800
00000005301800
00000009984900
0000000A101900
00000007202700
018A1006303600
0A228007202700
5400660A983900
2A300579001900
0091568B103600
002B700C304500
00076001A32700
00006500450900
00000911C89400
000003A9210000
ENDCHAR
STARTCHAR Kcommaaccent
ENCODING 310
SWIDTH 541 0
DWIDTH 13 0
BBX 14 23 0 -6
BITMAP
04998100014100
0A002800076A40
09004500370091
08106303900084
0900635C100940
0C8856A3917400
0A004C30149000
09006600291000
09007102B70000
09006A09190000
0C874867047000
09015AC4759000
0900783C107200
09008109002800
09007203600740
36004600900650
19889100978700
00000110021000
00000877000000
00002708100000
00009055000000
00082270000000
00039900000000
ENDCHAR
STARTCHAR kcommaaccent
ENCODING 311
SWIDTH 541 0
DWIDTH 13 0
BBX 14 23 0 -6
BITMAP
04998100014100
0A002800076A40
09004500370091
08106303900084
0900635C100940
0C8856A3917400
0A004C30149000
09006600291000
09007102B70000
09006A09190000
0C874867047000
09015AC4759000
0900783C107200
09008109002800
09007203600740
36004600900650
19889100978700
00000110021000
00000877000000
00002708100000
00009055000000
00082270000000
00039900000000
ENDCHAR
STARTCHAR kgreenlandic
ENCODING 312
SWIDTH 541 0
DWIDTH 13 0
BBX 14 18 0 -1
BITMAP
04998100014100
0A002800076A40
09004500370091
08106303900084
0900635C100940
0C8856A3917400
0A004C30149000
09006600291000
09007102B70000
09006A09190000
0C874867047000
09015AC4759000
0900783C107200
09008109002800
09007203600740
36004600900650
19889100978700
00000000021000
ENDCHAR
STARTCHAR Lacute
ENCODING 313
SWIDTH 467 0
DWIDTH 11 0
BBX 12 23 0 0
BITMAP
000002100000
00000A850000
000063090000
000270820000
000906300000
000697000000
049992000000
0A0028000000
090045000000
081063000000
090063000000
0C9856000000
0A0045000000
090062000000
090072000000
090063000000
0C8746000000
090054000000
090079631250
090085867656
090074700009
360048300018
0888999889A2
ENDCHAR
STARTCHAR lacute
ENCODING 314
SWIDTH 467 0
DWIDTH 11 0
BBX 12 23 0 0
BITMAP
000002100000
00000A850000
000063090000
000270820000
000906300000
000697000000
049992000000
0A0028000000
090045000000
081063000000
090063000000
0C9856000000
0A0045000000
090062000000
090072000000
090063000000
0C8746000000
090054000000
090079631250
090085867656
090074700009
360048300018
0888999889A2
ENDCHAR
STARTCHAR Lcommaaccent
ENCODING 315
SWIDTH 467 0
DWIDTH 11 0
BBX 12 23 0 -6
BITMAP
049982000000
0A0028000000
090045000000
081063000000
090063000000
0C9856000000
0A0045000000
090062000000
090072000000
090063000000
0C8746000000
090054000000
090079631250
090085867656
090074700009
360048300018
0888999889A2
000002000000
000077800000
000180720000
000914700000
006418000000
0029A1000000
ENDCHAR
STARTCHAR lcommaaccent
ENCODING 316
SWIDTH 467 0
DWIDTH 11 0
BBX 12 23 0 -6
BITMAP
049982000000
0A0028000000
090045000000
081063000000
090063000000
0C9856000000
0A0045000000
090062000000
090072000000
090063000000
0C8746000000
090054000000
090079631250
090085867656
090074700009
360048300018
0888999889A2
000002000000
000077800000
000180720000
000914700000
006418000000
0029A1000000
ENDCHAR
STARTCHAR Lcaron
ENCODING 317
SWIDTH 467 0
DWIDTH 11 0
BBX 12 19 0 0
BITMAP
000000008810
000000036180
049982090470
0A0028822700
090045939000
081063162000
090063000000
0C9856000000
0A0045000000
090062000000
090072000000
090063000000
0C8746000000
090054000000
090079631250
090085867656
090074700009
360048300018
0888999889A2
ENDCHAR
STARTCHAR lcaron
ENCODING 318
SWIDTH 467 0
DWIDTH 11 0
BBX 12 19 0 0
BITMAP
000000008810
000000036180
049982090470
0A0028822700
090045939000
081063162000
090063000000
0C9856000000
0A0045000000
090062000000
090072000000
090063000000
0C8746000000
090054000000
090079631250
090085867656
090074700009
360048300018
0888999889A2
ENDCHAR
STARTCHAR Ldot
ENCODING 319
SWIDTH 611 0
DWIDTH 15 0
BBX 14 17 0 0
BITMAP
04998200000000
0A002800000000
09004500000000
08106300000000
09006300000000
0C985600000000
0A004500003885
09006200008009
09007200008008
09006300006778
0C874600000110
09005400000000
09007963125000
09008586765600
09007470000900
36004830001800
0888999889A200
ENDCHAR
STARTCHAR ldotaccent
ENCODING 320
SWIDTH 611 0
DWIDTH 15 0
BBX 14 17 0 0
BITMAP
04998200000000
0A002800000000
09004500000000
08106300000000
09006300000000
0C985600000000
0A004500003885
09006200008009
09007200008008
09006300006778
0C874600000110
09005400000000
09007963125000
09008586765600
09007470000900
36004830001800
0888999889A200
ENDCHAR
STARTCHAR Lslash
ENCODING 321
SWIDTH 505 0
DWIDTH 12 0
BBX 14 17 -1 0
BITMAP
00059981000000
000A0037000000
00090054000000
00090072000000
00090072000000
000C8755000000
0019005AA40000
098A00810A0000
550900810A0000
46090078860000
0A6C8755000000
00390164000000
00090087744760
00090093945281
00180081800054
00450055423182
001988A8965760
ENDCHAR
STARTCHAR lslash
ENCODING 322
SWIDTH 505 0
DWIDTH 12 0
BBX 14 17 -1 0
BITMAP
00059981000000
000A0037000000
00090054000000
00090072000000
00090072000000
000C8755000000
0019005AA40000
098A00810A0000
550900810A0000
46090078860000
0A6C8755000000
00390164000000
00090087744760
00090093945281
00180081800054
00450055423182
001988A8965760
ENDCHAR
STARTCHAR Nacute
ENCODING 323
SWIDTH 598 0
DWIDTH 14 0
BBX 14 23 0 0
BITMAP
00000000110000
00000000976000
00000003509000
00000019074000
00000081460000
00000049900000
04998510049981
0A002C700A0029
09004590090045
08106391091063
09006329090063
0C8858683C8856
0A0048137A0045
09006300A90063
090079006D0072
09006A20092063
0C87498785A746
090155C2019155
09007247008172
09008109001A81
090072054007A2
36004603603A46
198892008BD892
ENDCHAR
STARTCHAR nacute
ENCODING 324
SWIDTH 598 0
DWIDTH 14 0
BBX 14 23 0 0
BITMAP
00000000110000
00000000976000
00000003509000
00000019074000
00000081460000
00000049900000
04998510049981
0A002C700A0029
09004590090045
08106391091063
09006329090063
0C8858683C8856
0A0048137A0045
09006300A90063
090079006D0072
09006A20092063
0C87498785A746
090155C2019155
09007247008172
09008109001A81
090072054007A2
36004603603A46
198892008BD892
ENDCHAR
STARTCHAR Ncommaaccent
ENCODING 325
SWIDTH 598 0
DWIDTH 14 0
BBX 14 23 0 -6
BITMAP
04998510049981
0A002C700A0029
09004590090045
08106391091063
09006329090063
0C8858683C8856
0A0048137A0045
09006300A90063
090079006D0072
09006A20092063
0C87498785A746
090155C2019155
09007247008172
09008109001A81
090072054007A2
36004603603A46
198892008BD892
00000021000000
000001A8400000
00000720900000
00003708200000
0000A073000000
00007870000000
ENDCHAR
STARTCHAR ncommaaccent
ENCODING 326
SWIDTH 598 0
DWIDTH 14 0
BBX 14 23 0 -6
BITMAP
04998510049981
0A002C700A0029
09004590090045
08106391091063
09006329090063
0C8858683C8856
0A0048137A0045
09006300A90063
090079006D0072
09006A20092063
0C87498785A746
090155C2019155
09007247008172
09008109001A81
090072054007A2
36004603603A46
198892008BD892
00000021000000
000001A8400000
00000720900000
00003708200000
0000A073000000
00007870000000
ENDCHAR
STARTCHAR Ncaron
ENCODING 327
SWIDTH 598 0
DWIDTH 14 0
BBX 14 24 0 0
BITMAP
00000200020000
00009680869000
00018063707200
0000731C138000
00000905490000
00000711D40000
0000028A800000
04998510049981
0A002C700A0029
09004590090045
08106391091063
09006329090063
0C8858683C8856
0A0048137A0045
09006300A90063
090079006D0072
09006A20092063
0C87498785A746
090155C2019155
09007247008172
09008109001A81
090072054007A2
36004603603A46
198892008BD892
ENDCHAR
STARTCHAR ncaron
ENCODING 328
SWIDTH 598 0
DWIDTH 14 0
BBX 14 24 0 0
BITMAP
00000200020000
00009680869000
00018063707200
0000731C138000
00000905490000
00000711D40000
0000028A800000
04998510049981
0A002C700A0029
09004590090045
08106391091063
09006329090063
0C8858683C8856
0A0048137A0045
09006300A90063
090079006D0072
09006A20092063
0C87498785A746
090155C2019155
09007247008172
09008109001A81
090072054007A2
36004603603A46
198892008BD892
ENDCHAR
STARTCHAR napostrophe
ENCODING 329
SWIDTH 807 0
DWIDTH 19 0
BBX 19 18 0 -1
BITMAP
00881049985100399810
036180A002C700A00290
09056090046900900460
82370081064810810630
93900090054290900540
162000C8848673C88560
000000A0049137A00450
0000009006300A900630
00000090079005D00720
0000009006A200920630
000000C87498785A7470
00000090155C30191550
00000090072470081720
0000009008109001A810
00000090063054006A20
0000037003602703A460
00000098892007AD8920
00000000000000001000
ENDCHAR
STARTCHAR Eng
ENCODING 330
SWIDTH 595 0
DWIDTH 14 0
BBX 14 24 0 -7
BITMAP
04998510004520
0A002C700975A5
09004590090027
08006391090054
09005329090062
0C874868290063
0A0048136B5455
09006300BC4556
090079006B0063
09006B20092081
0C864887855081
090155C2019063
09007247008756
09008109001B65
090072054007B2
36004603604990
198892007C6081
000000002CA463
000236AD840956
006763090006A1
00900006113910
00730146975400
001A7953100000
00012000000000
ENDCHAR
STARTCHAR eng
ENCODING 331
SWIDTH 595 0
DWIDTH 14 0
BBX 14 24 0 -7
BITMAP
04998510004520
0A002C700975A5
09004590090027
08006391090054
09005329090062
0C874868290063
0A0048136B5455
09006300BC4556
090079006B0063
09006B20092081
0C864887855081
090155C2019063
09007247008756
09008109001B65
090072054007B2
36004603604990
198892007C6081
000000002CA463
000236AD840956
006763090006A1
00900006113910
00730146975400
001A7953100000
00012000000000
ENDCHAR
STARTCHAR Omacron
ENCODING 332
SWIDTH 612 0
DWIDTH 15 0
BBX 15 22 0 -1
BITMAP
0000021001000000
0000388887600000
0000700000800000
0001398889500000
0089988831341000
0180000A688BB200
026000080005B100
009354140006B000
00B64B898B998100
05B739000A555500
073139000C534600
0630190009005400
0720360008104600
0A00450006201800
0C88570008875900
0900630006510900
1800904758B98900
6400B85B43107B00
A100900800005C20
2C9970051466AB20
0653899985597200
0066100000000000
ENDCHAR
STARTCHAR omacron
ENCODING 333
SWIDTH 612 0
DWIDTH 15 0
BBX 15 22 0 -1
BITMAP
0000021001000000
0000388887600000
0000700000800000
0001398889500000
0089988831341000
0180000A688BB200
026000080005B100
009354140006B000
00B64B898B998100
05B739000A555500
073139000C534600
0630190009005400
0720360008104600
0A00450006201800
0C88570008875900
0900630006510900
1800904758B98900
6400B85B43107B00
A100900800005C20
2C9970051466AB20
0653899985597200
0066100000000000
ENDCHAR
STARTCHAR Obreve
ENCODING 334
SWIDTH 612 0
DWIDTH 15 0
BBX 15 24 0 -1
BITMAP
0000785028700000
0004508062370000
0000808080630000
000080889A800000
0000839106900000
000128A88A100000
0089988831341000
0180000A688BB200
026000080005B100
009354140006B000
00B64B898B998100
05B739000A555500
073139000C534600
0630190009005400
0720360008104600
0A00450006201800
0C88570008875900
0900630006510900
1800904758B98900
6400B85B43107B00
A100900800005C20
2C9970051466AB20
0653899985597200
0066100000000000
ENDCHAR
STARTCHAR obreve
ENCODING 335
SWIDTH 612 0
DWIDTH 15 0
BBX 15 24 0 -1
BITMAP
0000785028700000
0004508062370000
0000808080630000
000080889A800000
0000839106900000
000128A88A100000
0089988831341000
0180000A688BB200
026000080005B100
009354140006B000
00B64B898B998100
05B739000A555500
073139000C534600
0630190009005400
0720360008104600
0A00450006201800
0C88570008875900
0900630006510900
1800904758B98900
6400B85B43107B00
A100900800005C20
2C9970051466AB20
0653899985597200
0066100000000000
ENDCHAR
STARTCHAR Ohungarumlaut
ENCODING 336
SWIDTH 612 0
DWIDTH 15 0
BBX 15 25 0 -1
BITMAP
0000000200020000
0000003991679000
0000009027905400
0000064198238000
0000280956190000
000009A319A20000
0001000000000000
0089988831341000
0180000A688BB200
026000080005B100
009354140006B000
00B64B898B998100
05B739000A555500
073139000C534600
0630190009005400
0720360008104600
0A00450006201800
0C88570008875900
0900630006510900
1800904758B98900
6400B85B43107B00
A100900800005C20
2C9970051466AB20
0653899985597200
0066100000000000
ENDCHAR
STARTCHAR ohungarumlaut
ENCODING 337
SWIDTH 612 0
DWIDTH 15 0
BBX 15 25 0 -1
BITMAP
0000000200020000
0000003991679000
0000009027905400
0000064198238000
0000280956190000
000009A319A20000
0001000000000000
0089988831341000
0180000A688BB200
026000080005B100
009354140006B000
00B64B898B998100
05B739000A555500
073139000C534600
0630190009005400
0720360008104600
0A00450006201800
0C88570008875900
0900630006510900
1800904758B98900
6400B85B43107B00
A100900800005C20
2C9970051466AB20
0653899985597200
0066100000000000
ENDCHAR
STARTCHAR OE
ENCODING 338
SWIDTH 831 0
DWIDTH 20 0
BBX 20 19 0 -1
BITMAP
00010000000000000000
0089988833AB95875693
0180000A688A1B384319
02600008000558080009
00935414000667143429
00B64B898B993A885572
05B739000B8838000000
073139000A0029125000
06301900090049776600
07203600081054000900
0A004500090036101800
0C8857000B873C89A200
09006300090037000000
180091665B965AA73350
6400B869410963565574
A1009008000855540027
2C997005266A1A423045
0653899978CAA6876890
00661000000100000000
ENDCHAR
STARTCHAR oe
ENCODING 339
SWIDTH 831 0
DWIDTH 20 0
BBX 20 19 0 -1
BITMAP
00010000000000000000
0089988833AB95875693
0180000A688A1B384319
02600008000558080009
00935414000667143429
00B64B898B993A885572
05B739000B8838000000
073139000A0029125000
06301900090049776600
07203600081054000900
0A004500090036101800
0C8857000B873C89A200
09006300090037000000
180091665B965AA73350
6400B869410963565574
A1009008000855540027
2C997005266A1A423045
0653899978CAA6876890
00661000000100000000
ENDCHAR
STARTCHAR Racute
ENCODING 340
SWIDTH 532 0
DWIDTH 13 0
BBX 13 24 0 -1
BITMAP
00000000200000
00000003992000
00000008027000
00000064191000
00000180910000
0003408A400000
01786820000000
0AB0017A800000
09900005796310
09886109003680
09008A73000090
0A325438B70640
1C56560763AC20
090067B3102920
090079A9988100
090076601A0000
0A214780073000
0C6758B5039000
09007B1A845500
09008108300900
09008100A00280
27005400530090
29228400195920
02662000024000
ENDCHAR
STARTCHAR racute
ENCODING 341
SWIDTH 532 0
DWIDTH 13 0
BBX 13 24 0 -1
BITMAP
00000000200000
00000003992000
00000008027000
00000064191000
00000180910000
0003408A400000
01786820000000
0AB0017A800000
09900005796310
09886109003680
09008A73000090
0A325438B70640
1C56560763AC20
090067B3102920
090079A9988100
090076601A0000
0A214780073000
0C6758B5039000
09007B1A845500
09008108300900
09008100A00280
27005400530090
29228400195920
02662000024000
ENDCHAR
STARTCHAR Rcommaaccent
ENCODING 342
SWIDTH 532 0
DWIDTH 13 0
BBX 13 24 0 -6
BITMAP
00034000000000
01786820000000
0AB0017A800000
09900005796310
09886109003680
09008A73000090
0A325438B70640
1C56560763AC20
090067B3102920
090079A9988100
090076601A0000
0A214780073000
0C6758B5039000
09007B1A845500
09008108300900
09008100A00280
27005400530090
29228400195920
02662110024000
00000976000000
00004509000000
00019074000000
00091450000000
00059900000000
ENDCHAR
STARTCHAR rcommaaccent
ENCODING 343
SWIDTH 532 0
DWIDTH 13 0
BBX 13 24 0 -6
BITMAP
00034000000000
01786820000000
0AB0017A800000
09900005796310
09886109003680
09008A73000090
0A325438B70640
1C56560763AC20
090067B3102920
090079A9988100
090076601A0000
0A214780073000
0C6758B5039000
09007B1A845500
09008108300900
09008100A00280
27005400530090
29228400195920
02662110024000
00000976000000
00004509000000
00019074000000
00091450000000
00059900000000
ENDCHAR
STARTCHAR Rcaron
ENCODING 344
SWIDTH 532 0
DWIDTH 13 0
BBX 13 26 0 -1
BITMAP
00002000200000
00087A07791000
00090448045000
000450B2190000
00009036810000
0000440B700000
0000089A100000
00034000000000
01786820000000
0AB0017A800000
09900005796310
09886109003680
09008A73000090
0A325438B70640
1C56560763AC20
090067B3102920
090079A9988100
090076601A0000
0A214780073000
0C6758B5039000
09007B1A845500
09008108300900
09008100A00280
27005400530090
29228400195920
02662000024000
ENDCHAR
STARTCHAR rcaron
ENCODING 345
SWIDTH 532 0
DWIDTH 13 0
BBX 13 26 0 -1
BITMAP
00002000200000
00087A07791000
00090448045000
000450B2190000
00009036810000
0000440B700000
0000089A100000
00034000000000
01786820000000
0AB0017A800000
09900005796310
09886109003680
09008A73000090
0A325438B70640
1C56560763AC20
090067B3102920
090079A9988100
090076601A0000
0A214780073000
0C6758B5039000
09007B1A845500
09008108300900
09008100A00280
27005400530090
29228400195920
02662000024000
ENDCHAR
STARTCHAR Sacute
ENCODING 346
SWIDTH 442 0
DWIDTH 11 0
BBX 11 25 0 -1
BITMAP
000000200000
000002992000
000008118000
000055191000
000190810000
000089400000
000000001100
02447A898A00
1A9929000540
3C5746100450
910095688A10
470087200000
073019100000
018284600000
009910900000
003800460000
000550074000
000091759000
00006A108100
00014B101900
6988A7800380
900035900560
900024889800
757889534000
052000000000
ENDCHAR
STARTCHAR sacute
ENCODING 347
SWIDTH 442 0
DWIDTH 11 0
BBX 11 25 0 -1
BITMAP
000000200000
000002992000
000008118000
000055191000
000190810000
000089400000
000000001100
02447A898A00
1A9929000540
3C5746100450
910095688A10
470087200000
073019100000
018284600000
009910900000
003800460000
000550074000
000091759000
00006A108100
00014B101900
6988A7800380
900035900560
900024889800
757889534000
052000000000
ENDCHAR
STARTCHAR Scircumflex
ENCODING 348
SWIDTH 442 0
DWIDTH 11 0
BBX 11 25 0 -1
BITMAP
0002AAA00000
000810D40000
003607390000
01905B038000
035082609000
007930886000
000000001100
02447A898A00
1A9929000540
3C5746100450
910095688A10
470087200000
073019100000
018284600000
009910900000
003800460000
000550074000
000091759000
00006A108100
00014B101900
6988A7800380
900035900560
900024889800
757889534000
052000000000
ENDCHAR
STARTCHAR scircumflex
ENCODING 349
SWIDTH 442 0
DWIDTH 11 0
BBX 11 25 0 -1
BITMAP
0002AAA00000
000810D40000
003607390000
01905B038000
035082609000
007930886000
000000001100
02447A898A00
1A9929000540
3C5746100450
910095688A10
470087200000
073019100000
018284600000
009910900000
003800460000
000550074000
000091759000
00006A108100
00014B101900
6988A7800380
900035900560
900024889800
757889534000
052000000000
ENDCHAR
STARTCHAR Scedilla
ENCODING 350
SWIDTH 442 0
DWIDTH 11 0
BBX 11 23 0 -5
BITMAP
000000001100
02447A898A00
1A9929000540
3C5746100450
910095688A10
470087200000
073019100000
018284600000
009910900000
003800460000
000550074000
000091759000
00006A108100
00014B101900
6988A7800380
900035900560
900024889800
75788B594000
052008080000
000167080000
008748980000
008027920000
004971000000
ENDCHAR
STARTCHAR scedilla
ENCODING 351
SWIDTH 442 0
DWIDTH 11 0
BBX 11 23 0 -5
BITMAP
000000001100
02447A898A00
1A9929000540
3C5746100450
910095688A10
470087200000
073019100000
018284600000
009910900000
003800460000
000550074000
000091759000
00006A108100
00014B101900
6988A7800380
900035900560
900024889800
75788B594000
052008080000
000167080000
008748980000
008027920000
004971000000
ENDCHAR
STARTCHAR Scaron
ENCODING 352
SWIDTH 442 0
DWIDTH 11 0
BBX 11 26 0 -1
BITMAP
001200120000
029670977000
046074509000
00813B056000
001707380000
000804D20000
00038A600000
000000001100
02447A898A00
1A9929000540
3C5746100450
910095688A10
470087200000
073019100000
018284600000
009910900000
003800460000
000550074000
000091759000
00006A108100
00014B101900
6988A7800380
900035900560
900024889800
757889534000
052000000000
ENDCHAR
STARTCHAR scaron
ENCODING 353
SWIDTH 442 0
DWIDTH 11 0
BBX 11 26 0 -1
BITMAP
001200120000
029670977000
046074509000
00813B056000
001707380000
000804D20000
00038A600000
000000001100
02447A898A00
1A9929000540
3C5746100450
910095688A10
470087200000
073019100000
018284600000
009910900000
003800460000
000550074000
000091759000
00006A108100
00014B101900
6988A7800380
900035900560
900024889800
757889534000
052000000000
ENDCHAR
STARTCHAR Tcommaaccent
ENCODING 354
SWIDTH 453 0
DWIDTH 11 0
BBX 12 24 -1 -7
BITMAP
079888B88896
180000721009
270000620008
0A3576568759
026366447142
000072018000
0000A9849000
000090018000
000072036000
000072026000
000093219000
0000A6649000
000081027000
000081045000
000090036000
000090009000
000079894000
000002100000
000048910000
000090360000
000732900000
003709000000
0019A3000000
000010000000
ENDCHAR
STARTCHAR tcommaaccent
ENCODING 355
SWIDTH 453 0
DWIDTH 11 0
BBX 12 24 -1 -7
BITMAP
079888B88896
180000721009
270000620008
0A3576568759
026366447142
000072018000
0000A9849000
000090018000
000072036000
000072026000
000093219000
0000A6649000
000081027000
000081045000
000090036000
000090009000
000079894000
000002100000
000048910000
000090360000
000732900000
003709000000
0019A3000000
000010000000
ENDCHAR
STARTCHAR Tcaron
ENCODING 356
SWIDTH 453 0
DWIDTH 11 0
BBX 12 26 -1 -1
BITMAP
000020002000
00087A067920
000903590360
000360A31900
000080268100
0000450B7000
0000089A1000
000000000000
079888B88896
180000721009
270000620008
0A3576568759
026366447142
000072018000
0000A9849000
000090018000
000072036000
000072026000
000093219000
0000A6649000
000081027000
000081045000
000090036000
000090009000
000079894000
000000100000
ENDCHAR
STARTCHAR tcaron
ENCODING 357
SWIDTH 453 0
DWIDTH 11 0
BBX 12 26 -1 -1
BITMAP
000020002000
00087A067920
000903590360
000360A31900
000080268100
0000450B7000
0000089A1000
000000000000
079888B88896
180000721009
270000620008
0A3576568759
026366447142
000072018000
0000A9849000
000090018000
000072036000
000072026000
000093219000
0000A6649000
000081027000
000081045000
000090036000
000090009000
000079894000
000000100000
ENDCHAR
STARTCHAR Tbar
ENCODING 358
SWIDTH 455 0
DWIDTH 11 0
BBX 12 18 -1 -1
BITMAP
059768964584
090221744419
270000620008
090232434419
059679879574
000064018000
0000A9849000
0016B1009100
008357888930
008000000180
009001100270
0038C99AB910
000081018000
000072036000
000091036000
000090009000
000096477000
000003520000
ENDCHAR
STARTCHAR tbar
ENCODING 359
SWIDTH 455 0
DWIDTH 11 0
BBX 12 18 -1 -1
BITMAP
059768964584
090221744419
270000620008
090232434419
059679879574
000064018000
0000A9849000
0016B1009100
008357888930
008000000180
009001100270
0038C99AB910
000081018000
000072036000
000091036000
000090009000
000096477000
000003520000
ENDCHAR
STARTCHAR Utilde
ENCODING 360
SWIDTH 583 0
DWIDTH 14 0
BBX 14 24 0 -1
BITMAP
0000088C40A860
00002707A44090
000091285A0450
000730A6081900
0008062902C300
000387049B9000
01899400289930
04600920A10190
02700900720270
03600900530260
05400900530180
0B983900888590
09002800830090
09004500450090
09006300270090
09006300270090
1C8865003A8772
09008100283181
180091657C8990
5500B8952007B0
910090260005A3
4A788014378B37
05637889698891
00782000001100
ENDCHAR
STARTCHAR utilde
ENCODING 361
SWIDTH 583 0
DWIDTH 14 0
BBX 14 24 0 -1
BITMAP
0000088C40A860
00002707A44090
000091285A0450
000730A6081900
0008062902C300
000387049B9000
01899400289930
04600920A10190
02700900720270
03600900530260
05400900530180
0B983900888590
09002800830090
09004500450090
09006300270090
09006300270090
1C8865003A8772
09008100283181
180091657C8990
5500B8952007B0
910090260005A3
4A788014378B37
05637889698891
00782000001100
ENDCHAR
STARTCHAR Umacron
ENCODING 362
SWIDTH 583 0
DWIDTH 14 0
BBX 14 23 0 -1
BITMAP
00000200010000
00007688892000
00008000035000
00006888891000
00000000000000
01899400289930
04600920A10190
02700900720270
03600900530260
05400900530180
0B983900888590
09002800830090
09004500450090
09006300270090
09006300270090
1C8865003A8772
09008100283181
180091657C8990
5500B8952007B0
910090260005A3
4A788014378B37
05637889698891
00782000001100
ENDCHAR
STARTCHAR umacron
ENCODING 363
SWIDTH 583 0
DWIDTH 14 0
BBX 14 23 0 -1
BITMAP
00000200010000
00007688892000
00008000035000
00006888891000
00000000000000
01899400289930
04600920A10190
02700900720270
03600900530260
05400900530180
0B983900888590
09002800830090
09004500450090
09006300270090
09006300270090
1C8865003A8772
09008100283181
180091657C8990
5500B8952007B0
910090260005A3
4A788014378B37
05637889698891
00782000001100
ENDCHAR
STARTCHAR Ubreve
ENCODING 364
SWIDTH 583 0
DWIDTH 14 0
BBX 14 25 0 -1
BITMAP
00048800782000
0009061080A000
00080523518000
000532B8994000
000375600F1000
00005B88940000
00000000000000
01899400289930
04600920A10190
02700900720270
03600900530260
05400900530180
0B983900888590
09002800830090
09004500450090
09006300270090
09006300270090
1C8865003A8772
09008100283181
180091657C8990
5500B8952007B0
910090260005A3
4A788014378B37
05637889698891
00782000001100
ENDCHAR
STARTCHAR ubreve
ENCODING 365
SWIDTH 583 0
DWIDTH 14 0
BBX 14 25 0 -1
BITMAP
00048800782000
0009061080A000
00080523518000
000532B8994000
000375600F1000
00005B88940000
00000000000000
01899400289930
04600920A10190
02700900720270
03600900530260
05400900530180
0B983900888590
09002800830090
09004500450090
09006300270090
09006300270090
1C8865003A8772
09008100283181
180091657C8990
5500B8952007B0
910090260005A3
4A788014378B37
05637889698891
00782000001100
ENDCHAR
STARTCHAR Uring
ENCODING 366
SWIDTH 583 0
DWIDTH 14 0
BBX 14 25 0 -1
BITMAP
00000898920000
0000360A180000
0001904A072000
00081196318000
0002BA77985000
00017000282000
00007888870000
01899400289930
04600920A10190
02700900720270
03600900530260
05400900530180
0B983900888590
09002800830090
09004500450090
09006300270090
09006300270090
1C8865003A8772
09008100283181
180091657C8990
5500B8952007B0
910090260005A3
4A788014378B37
05637889698891
00782000001100
ENDCHAR
STARTCHAR uring
ENCODING 367
SWIDTH 583 0
DWIDTH 14 0
BBX 14 25 0 -1
BITMAP
00000898920000
0000360A180000
0001904A072000
00081196318000
0002BA77985000
00017000282000
00007888870000
01899400289930
04600920A10190
02700900720270
03600900530260
05400900530180
0B983900888590
09002800830090
09004500450090
09006300270090
09006300270090
1C8865003A8772
09008100283181
180091657C8990
5500B8952007B0
910090260005A3
4A788014378B37
05637889698891
00782000001100
ENDCHAR
STARTCHAR Uhungarumlaut
ENCODING 368
SWIDTH 583 0
DWIDTH 14 0
BBX 14 25 0 -1
BITMAP
00000021002000
00000198339920
00000721990270
00004609741910
0000A074809100
000079608A4000
00000000000000
01899400289930
04600920A10190
02700900720270
03600900530260
05400900530180
0B983900888590
09002800830090
09004500450090
09006300270090
09006300270090
1C8865003A8772
09008100283181
180091657C8990
5500B8952007B0
910090260005A3
4A788014378B37
05637889698891
00782000001100
ENDCHAR
STARTCHAR uhungarumlaut
ENCODING 369
SWIDTH 583 0
DWIDTH 14 0
BBX 14 25 0 -1
BITMAP
00000021002000
00000198339920
00000721990270
00004609741910
0000A074809100
000079608A4000
00000000000000
01899400289930
04600920A10190
02700900720270
03600900530260
05400900530180
0B983900888590
09002800830090
09004500450090
09006300270090
09006300270090
1C8865003A8772
09008100283181
180091657C8990
5500B8952007B0
910090260005A3
4A788014378B37
05637889698891
00782000001100
ENDCHAR
STARTCHAR Uogonek
ENCODING 370
SWIDTH 583 0
DWIDTH 14 0
BBX 14 23 0 -6
BITMAP
01899400289930
04600920A10190
02700900720270
03600900530260
05400900530180
0B983900888590
09002800830090
09004500450090
09006300270090
09006300270090
1C8865003A8772
09008100283181
180091657C8990
5500B8952007B0
910090260005A3
4A788014378B37
056378896B88A1
00782000181910
00000000722700
00000000769940
000000001B5057
00000000008455
00000000000760
ENDCHAR
STARTCHAR uogonek
ENCODING 371
SWIDTH 583 0
DWIDTH 14 0
BBX 14 23 0 -6
BITMAP
01899400289930
04600920A10190
02700900720270
03600900530260
05400900530180
0B983900888590
09002800830090
09004500450090
09006300270090
09006300270090
1C8865003A8772
09008100283181
180091657C8990
5500B8952007B0
910090260005A3
4A788014378B37
056378896B88A1
00782000181910
00000000722700
00000000769940
000000001B5057
00000000008455
00000000000760
ENDCHAR
STARTCHAR Wcircumflex
ENCODING 372
SWIDTH 735 0
DWIDTH 18 0
BBX 19 23 -1 -1
BITMAP
0000000088C300000000
00000002708A00000000
00000009128540000000
000000730A6092000000
00000080639027000000
00031039804991153000
0696A300023000B45A20
1A005500875A00900550
08103702900801800900
04600905B10715500900
0180082B95027B521800
01C9745A4B858B464700
00A00268190088006300
00630097071068009000
00180093035046009000
000802A985B9C6209000
000B96A005B094649000
00072090097190045000
00018180085490081000
00009720085860090000
00009820091C10090000
0000A4CB9305834A0000
00001651000026510000
ENDCHAR
STARTCHAR wcircumflex
ENCODING 373
SWIDTH 735 0
DWIDTH 18 0
BBX 19 23 -1 -1
BITMAP
0000000088C300000000
00000002708A00000000
00000009128540000000
000000730A6092000000
00000080639027000000
00031039804991153000
0696A300023000B45A20
1A005500875A00900550
08103702900801800900
04600905B10715500900
0180082B95027B521800
01C9745A4B858B464700
00A00268190088006300
00630097071068009000
00180093035046009000
000802A985B9C6209000
000B96A005B094649000
00072090097190045000
00018180085490081000
00009720085860090000
00009820091C10090000
0000A4CB9305834A0000
00001651000026510000
ENDCHAR
STARTCHAR Ycircumflex
ENCODING 374
SWIDTH 484 0
DWIDTH 12 0
BBX 14 23 -1 0
BITMAP
0000088C300000
00002708A00000
00009027640000
000830A5091000
00080629036000
00039704991000
00130000045200
078840000A4870
45009000360082
65004800810190
06500573700820
0081468C940900
002B6038054700
00093064009100
000082A0045000
00001C50090000
00000A88190000
00002701670000
00008200A00000
00038006400000
000A0009000000
00067009000000
00004994000000
ENDCHAR
STARTCHAR ycircumflex
ENCODING 375
SWIDTH 484 0
DWIDTH 12 0
BBX 14 23 -1 0
BITMAP
0000088C300000
00002708A00000
00009027640000
000830A5091000
00080629036000
00039704991000
00130000045200
078840000A4870
45009000360082
65004800810190
06500573700820
0081468C940900
002B6038054700
00093064009100
000082A0045000
00001C50090000
00000A88190000
00002701670000
00008200A00000
00038006400000
000A0009000000
00067009000000
00004994000000
ENDCHAR
STARTCHAR Ydieresis
ENCODING 376
SWIDTH 484 0
DWIDTH 12 0
BBX 14 21 -1 0
BITMAP
00068833884000
0037027900A000
00080448008000
00088925885000
00130000045200
078840000A4870
45009000360082
65004800810190
06500573700820
0081468C940900
002B6038054700
00093064009100
000082A0045000
00001C50090000
00000A88190000
00002701670000
00008200A00000
00038006400000
000A0009000000
00067009000000
00004994000000
ENDCHAR
STARTCHAR Zacute
ENCODING 377
SWIDTH 458 0
DWIDTH 11 0
BBX 13 23 -1 0
BITMAP
00000001200000
00000007780000
00000018072000
00000091460000
00000642800000
0000029A100000
00285686576000
00913284418100
00800062006A00
00902343549B10
003965C735C300
000004D4028000
00000916681000
00001900290000
00009200A10000
00067007400000
000A8809000000
00460257000000
01A001C4254000
1A2009A6639100
28002762005300
08507331318100
005D9888576000
ENDCHAR
STARTCHAR zacute
ENCODING 378
SWIDTH 458 0
DWIDTH 11 0
BBX 13 23 -1 0
BITMAP
00000001200000
00000007780000
00000018072000
00000091460000
00000642800000
0000029A100000
00285686576000
00913284418100
00800062006A00
00902343549B10
003965C735C300
000004D4028000
00000916681000
00001900290000
00009200A10000
00067007400000
000A8809000000
00460257000000
01A001C4254000
1A2009A6639100
28002762005300
08507331318100
005D9888576000
ENDCHAR
STARTCHAR Zdotaccent
ENCODING 379
SWIDTH 458 0
DWIDTH 11 0
BBX 13 22 -1 0
BITMAP
00000688300000
00003702700000
00000804400000
00000889200000
00000000000000
00285686576000
00913284418100
00800062006A00
00902343549B10
003965C735C300
000004D4028000
00000916681000
00001900290000
00009200A10000
00067007400000
000A8809000000
00460257000000
01A001C4254000
1A2009A6639100
28002762005300
08507331318100
005D9888576000
ENDCHAR
STARTCHAR zdotaccent
ENCODING 380
SWIDTH 458 0
DWIDTH 11 0
BBX 13 22 -1 0
BITMAP
00000688300000
00003702700000
00000804400000
00000889200000
00000000000000
00285686576000
00913284418100
00800062006A00
00902343549B10
003965C735C300
000004D4028000
00000916681000
00001900290000
00009200A10000
00067007400000
000A8809000000
00460257000000
01A001C4254000
1A2009A6639100
28002762005300
08507331318100
005D9888576000
ENDCHAR
STARTCHAR Zcaron
ENCODING 381
SWIDTH 458 0
DWIDTH 11 0
BBX 13 24 -1 0
BITMAP
00002000200000
00086907691000
00090448045000
000550B2190000
00009036810000
0000540B600000
0000089A000000
00285686576000
00913284418100
00800062006A00
00902343549B10
003965C735C300
000004D4028000
00000916681000
00001900290000
00009200A10000
00067007400000
000A8809000000
00460257000000
01A001C4254000
1A2009A6639100
28002762005300
08507331318100
005D9888576000
ENDCHAR
STARTCHAR zcaron
ENCODING 382
SWIDTH 458 0
DWIDTH 11 0
BBX 13 24 -1 0
BITMAP
00002000200000
00086907691000
00090448045000
000550B2190000
00009036810000
0000540B600000
0000089A000000
00285686576000
00913284418100
00800062006A00
00902343549B10
003965C735C300
000004D4028000
00000916681000
00001900290000
00009200A10000
00067007400000
000A8809000000
00460257000000
01A001C4254000
1A2009A6639100
28002762005300
08507331318100
005D9888576000
ENDCHAR
STARTCHAR AEacute
ENCODING 508
SWIDTH 797 0
DWIDTH 19 0
BBX 21 25 -1 -1
BITMAP
0000000000002100000000
0000000000029930000000
0000000000081180000000
0000000000451910000000
0000000001908200000000
0000000000895000000000
0000000000000000000000
0000000011999678558500
0000000A9C500A1A331900
0000002601A00908000810
0000008200A10914342900
0000038007500C89657400
00001D601E984900000000
000045385C200A12510000
00009100A6301A77580000
0002800735401700090000
000B101A16300810090000
004993587C984B78A40000
0080059107201900000000
0280056237301C98435100
1A101B755A202728564700
7400640008101817000900
2A10900009000A33311800
028970000598A77768A200
0000000000010000000000
ENDCHAR
STARTCHAR aeacute
ENCODING 509
SWIDTH 797 0
DWIDTH 19 0
BBX 21 25 -1 -1
BITMAP
0000000000002100000000
0000000000029930000000
0000000000081180000000
0000000000451910000000
0000000001908200000000
0000000000895000000000
0000000000000000000000
0000000011999678558500
0000000A9C500A1A331900
0000002601A00908000810
0000008200A10914342900
0000038007500C89657400
00001D601E984900000000
000045385C200A12510000
00009100A6301A77580000
0002800735401700090000
000B101A16300810090000
004993587C984B78A40000
0080059107201900000000
0280056237301C98435100
1A101B755A202728564700
7400640008101817000900
2A10900009000A33311800
028970000598A77768A200
0000000000010000000000
ENDCHAR
STARTCHAR Oslashacute
ENCODING 510
SWIDTH 612 0
DWIDTH 15 0
BBX 15 24 0 -1
BITMAP
0000000012000000
0000000087800000
0000000170720000
0000000915600000
0000007328000000
00010029A1000000
0089988830672000
0180000A6A64B200
0260000808003700
009354143600A200
00B64B8AB006B100
05B7390B701B5500
0731393649744600
0630188001805400
072039700B204600
0A003B006A201800
0C88A90088875900
090184B456510900
1808201C68B98900
6437009B43107B00
A290045800005C20
2C1009051466AB20
06602C9985597200
008BA10000000000
ENDCHAR
STARTCHAR oslashacute
ENCODING 511
SWIDTH 612 0
DWIDTH 15 0
BBX 15 24 0 -1
BITMAP
0000000012000000
0000000087800000
0000000170720000
0000000915600000
0000007328000000
00010029A1000000
0089988830672000
0180000A6A64B200
0260000808003700
009354143600A200
00B64B8AB006B100
05B7390B701B5500
0731393649744600
0630188001805400
072039700B204600
0A003B006A201800
0C88A90088875900
090184B456510900
1808201C68B98900
6437009B43107B00
A290045800005C20
2C1009051466AB20
06602C9985597200
008BA10000000000
ENDCHAR
STARTCHAR dotlessj
ENCODING 567
SWIDTH 482 0
DWIDTH 12 0
BBX 12 18 -1 -1
BITMAP
000000029993
00000007300A
000000044009
000000045018
000000053018
000000099849
0000000A1019
000000072027
018A10063036
0A2280072027
5400660A9839
2A3005790019
0091568B1036
002B700C3045
00076001A327
000065004509
00000911C894
000003A92100
ENDCHAR
STARTCHAR circumflex
ENCODING 710
SWIDTH 308 0
DWIDTH 7 0
BBX 8 6 0 18
BITMAP
0099C200
0450A800
19046720
821B40A1
80719045
48705880
ENDCHAR
STARTCHAR caron
ENCODING 711
SWIDTH 310 0
DWIDTH 7 0
BBX 8 7 0 18
BITMAP
02000200
87A07791
90448045
450B2190
09036810
0440B700
0089A100
ENDCHAR
STARTCHAR breve
ENCODING 728
SWIDTH 333 0
DWIDTH 8 0
BBX 8 6 0 18
BITMAP
48800782
9071170A
80624518
533A8993
465601E0
05B88A40
ENDCHAR
STARTCHAR dotaccent
ENCODING 729
SWIDTH 166 0
DWIDTH 4 0
BBX 4 4 0 18
BITMAP
3886
A009
7108
5886
ENDCHAR
STARTCHAR ring
ENCODING 730
SWIDTH 309 0
DWIDTH 7 0
BBX 8 7 0 18
BITMAP
01A88900
07228540
46077090
A0569045
799778A2
62000390
18888850
ENDCHAR
STARTCHAR ogonek
ENCODING 731
SWIDTH 226 0
DWIDTH 5 0
BBX 6 8 0 -6
BITMAP
069500
090820
260900
914400
95A930
2C3075
019272
000840
ENDCHAR
STARTCHAR tilde
ENCODING 732
SWIDTH 410 0
DWIDTH 10 0
BBX 10 6 0 18
BITMAP
0098C21A85
0450986209
1904678063
911B408270
8071904C10
486068C700
ENDCHAR
STARTCHAR hungarumlaut
ENCODING 733
SWIDTH 361 0
DWIDTH 9 0
BBX 9 6 0 18
BITMAP
0021002000
00A8429920
0720981180
3708751910
A074908100
6970895000
ENDCHAR
STARTCHAR uni0312
ENCODING 786
SWIDTH 202 0
DWIDTH 5 0
BBX 5 6 0 11
BITMAP
008810
036180
090560
823700
939000
162000
ENDCHAR
STARTCHAR uni0315
ENCODING 789
SWIDTH 202 0
DWIDTH 5 0
BBX 5 6 0 11
BITMAP
008810
036180
090560
823700
939000
162000
ENDCHAR
STARTCHAR uni0326
ENCODING 806
SWIDTH 201 0
DWIDTH 5 0
BBX 5 6 0 -6
BITMAP
001100
00A840
063090
270820
A06300
787000
ENDCHAR
STARTCHAR Wgrave
ENCODING 7808
SWIDTH 735 0
DWIDTH 18 0
BBX 19 23 -1 -1
BITMAP
00000000340000000000
00000008591000000000
00000018044000000000
00000005408000000000
00000000908100000000
00031000498000153000
0696A300023000B45A20
1A005500875A00900550
08103702900801800900
04600905B10715500900
0180082B95027B521800
01C9745A4B858B464700
00A00268190088006300
00630097071068009000
00180093035046009000
000802A985B9C6209000
000B96A005B094649000
00072090097190045000
00018180085490081000
00009720085860090000
00009820091C10090000
0000A4CB9305834A0000
00001651000026510000
ENDCHAR
STARTCHAR wgrave
ENCODING 7809
SWIDTH 735 0
DWIDTH 18 0
BBX 19 23 -1 -1
BITMAP
00000000340000000000
00000008591000000000
00000018044000000000
00000005408000000000
00000000908100000000
00031000498000153000
0696A300023000B45A20
1A005500875A00900550
08103702900801800900
04600905B10715500900
0180082B95027B521800
01C9745A4B858B464700
00A00268190088006300
00630097071068009000
00180093035046009000
000802A985B9C6209000
000B96A005B094649000
00072090097190045000
00018180085490081000
00009720085860090000
00009820091C10090000
0000A4CB9305834A0000
00001651000026510000
ENDCHAR
STARTCHAR Wacute
ENCODING 7810
SWIDTH 735 0
DWIDTH 18 0
BBX 19 23 -1 -1
BITMAP
00000000000210000000
00000000001993000000
00000000008118000000
00000000046191000000
00000000090820000000
00031000089600153000
0696A300024000B45A20
1A005500875A00900550
08103702900801800900
04600905B10715500900
0180082B95027B521800
01C9745A4B858B464700
00A00268190088006300
00630097071068009000
00180093035046009000
000802A985B9C6209000
000B96A005B094649000
00072090097190045000
00018180085490081000
00009720085860090000
00009820091C10090000
0000A4CB9305834A0000
00001651000026510000
ENDCHAR
STARTCHAR wacute
ENCODING 7811
SWIDTH 735 0
DWIDTH 18 0
BBX 19 23 -1 -1
BITMAP
00000000000210000000
00000000001993000000
00000000008118000000
00000000046191000000
00000000090820000000
00031000089600153000
0696A300024000B45A20
1A005500875A00900550
08103702900801800900
04600905B10715500900
0180082B95027B521800
01C9745A4B858B464700
00A00268190088006300
00630097071068009000
00180093035046009000
000802A985B9C6209000
000B96A005B094649000
00072090097190045000
00018180085490081000
00009720085860090000
00009820091C10090000
0000A4CB9305834A0000
00001651000026510000
ENDCHAR
STARTCHAR Wdieresis
ENCODING 7812
SWIDTH 735 0
DWIDTH 18 0
BBX 19 21 -1 -1
BITMAP
00000068833884000000
0000037026900A000000
00000080448008000000
00031098925885153000
0696A300023000B45A20
1A005500875A00900550
08103702900801800900
04600905B10715500900
0180082B95027B521800
01C9745A4B858B464700
00A00268190088006300
00630097071068009000
00180093035046009000
000802A985B9C6209000
000B96A005B094649000
00072090097190045000
00018180085490081000
00009720085860090000
00009820091C10090000
0000A4CB9305834A0000
00001651000026510000
ENDCHAR
STARTCHAR wdieresis
ENCODING 7813
SWIDTH 735 0
DWIDTH 18 0
BBX 19 21 -1 -1
BITMAP
00000068833884000000
0000037026900A000000
00000080448008000000
00031098925885153000
0696A300023000B45A20
1A005500875A00900550
08103702900801800900
04600905B10715500900
0180082B95027B521800
01C9745A4B858B464700
00A00268190088006300
00630097071068009000
00180093035046009000
000802A985B9C6209000
000B96A005B094649000
00072090097190045000
00018180085490081000
00009720085860090000
00009820091C10090000
0000A4CB9305834A0000
00001651000026510000
ENDCHAR
STARTCHAR Ygrave
ENCODING 7922
SWIDTH 484 0
DWIDTH 12 0
BBX 14 23 -1 0
BITMAP
00000340000000
00008591000000
00018044000000
00005408000000
00000908100000
00000498000000
00130000045200
078840000A4870
45009000360082
65004800810190
06500573700820
0081468C940900
002B6038054700
00093064009100
000082A0045000
00001C50090000
00000A88190000
00002701670000
00008200A00000
00038006400000
000A0009000000
00067009000000
00004994000000
ENDCHAR
STARTCHAR ygrave
ENCODING 7923
SWIDTH 484 0
DWIDTH 12 0
BBX 14 23 -1 0
BITMAP
00000340000000
00008591000000
00018044000000
00005408000000
00000908100000
00000498000000
00130000045200
078840000A4870
45009000360082
65004800810190
06500573700820
0081468C940900
002B6038054700
00093064009100
000082A0045000
00001C50090000
00000A88190000
00002701670000
00008200A00000
00038006400000
000A0009000000
00067009000000
00004994000000
ENDCHAR
STARTCHAR endash
ENCODING 8211
SWIDTH 591 0
DWIDTH 14 0
BBX 14 6 0 5
BITMAP
04400200210000
28588B898B88A3
53000800080017
44000700160018
0A989899988893
00000000000020
ENDCHAR
STARTCHAR emdash
ENCODING 8212
SWIDTH 726 0
DWIDTH 17 0
BBX 17 6 0 5
BITMAP
022000000001000000
196888C8888C888950
530000800008000090
540000700007000090
0A8888888888888860
000000000000000200
ENDCHAR
STARTCHAR quoteleft
ENCODING 8216
SWIDTH 291 0
DWIDTH 7 0
BBX 7 11 0 7
BITMAP
00079500
00371670
006300A0
01900630
07A82900
08014900
18007200
91009000
90017000
3A894000
00100000
ENDCHAR
STARTCHAR quoteright
ENCODING 8217
SWIDTH 291 0
DWIDTH 7 0
BBX 7 11 0 7
BITMAP
00079500
00371670
006300A0
01900630
07A82900
08014900
18007200
91009000
90017000
3A894000
00100000
ENDCHAR
STARTCHAR quotesinglbase
ENCODING 8218
SWIDTH 228 0
DWIDTH 5 0
BBX 7 8 -1 -4
BITMAP
00020000
0048A400
00800900
07301910
73009100
71063000
1A790000
00200000
ENDCHAR
STARTCHAR quotedblleft
ENCODING 8220
SWIDTH 532 0
DWIDTH 13 0
BBX 13 11 0 7
BITMAP
00079500288300
00371670631850
006300A0900290
01900633800810
07A8290A971800
08014908025600
18007245009000
91009190027000
90017190053000
3A89405A8A1000
00100000100000
ENDCHAR
STARTCHAR quotedblright
ENCODING 8221
SWIDTH 532 0
DWIDTH 13 0
BBX 13 11 0 7
BITMAP
00079500288300
00371670631850
006300A0900290
01900633800810
07A8290A971800
08014908025600
18007245009000
91009190027000
90017190053000
3A89405A8A1000
00100000100000
ENDCHAR
STARTCHAR quotedblbase
ENCODING 8222
SWIDTH 448 0
DWIDTH 11 0
BBX 12 8 -1 -4
BITMAP
000200002100
0048A4019980
008009071063
073019560083
730095700730
710633502700
1A790088A100
002000011000
ENDCHAR
STARTCHAR dagger
ENCODING 8224
SWIDTH 453 0
DWIDTH 11 0
BBX 11 21 0 -2
BITMAP
000014200000
000596980000
000720090000
000540180000
088850296600
5418302A3730
810944180360
540B65490630
099C001A8800
000720360000
000720360000
000810270000
000A76290000
000A33390000
000810360000
000810450000
000900450000
000900270000
000A00090000
0007A8A30000
000002000000
ENDCHAR
STARTCHAR daggerdbl
ENCODING 8225
SWIDTH 462 0
DWIDTH 11 0
BBX 11 21 0 -2
BITMAP
000014200000
0004A6890000
000540090000
000360090000
0787600A5700
3616500B4550
630764190170
450975491450
098B200B8900
000640180000
000540170000
000630080000
044987391400
284B433A7830
630630180270
440630270360
0A9C202B8A10
000900180000
000A000A0000
0005A8A40000
000002000000
ENDCHAR
STARTCHAR bullet
ENCODING 8226
SWIDTH 275 0
DWIDTH 7 0
BBX 5 5 1 6
BITMAP
288600
710720
530800
486900
002000
ENDCHAR
STARTCHAR ellipsis
ENCODING 8230
SWIDTH 605 0
DWIDTH 15 0
BBX 14 5 0 -1
BITMAP
05740167301672
6517383191921A
44061620808008
48392663A08549
02520035100441
ENDCHAR
STARTCHAR perthousand
ENCODING 8240
SWIDTH 1249 0
DWIDTH 30 0
BBX 30 17 0 0
BITMAP
037543400000000000000000000000
0A6222560057750000000000000000
451800385070080000000000000000
330869734070070000000000000000
240706033070430000000000000000
240606033460610000000000000000
437968034756800000000000000000
671007016700805310100025200100
2B2016792702666466670094566820
0066567307043948100A7475700394
000000005936160667846420967834
000000007038160703306330706042
000000007008060704207330606042
000000007035064A36207436937043
000000053053177038007662137025
0000000462721960056674B1007573
000000002630006667780027667940
ENDCHAR
STARTCHAR guilsinglleft
ENCODING 8249
SWIDTH 359 0
DWIDTH 9 0
BBX 8 11 0 3
BITMAP
00001970
00029138
00670009
39300176
63003910
4A04B000
66973810
29500185
00580009
00029067
00002960
ENDCHAR
STARTCHAR guilsinglright
ENCODING 8250
SWIDTH 359 0
DWIDTH 9 0
BBX 9 11 0 3
BITMAP
0297000000
1A14800000
3500293000
1950005900
0049100810
0003B12C00
0038198900
0860007700
2700292000
0A23800000
0188000000
ENDCHAR
STARTCHAR fraction
ENCODING 8260
SWIDTH 266 0
DWIDTH 6 0
BBX 7 16 0 0
BITMAP
00097810
00160350
00340700
00610700
00910700
02854600
02506200
05307000
07007000
0B517000
06156000
34071000
61080000
80070000
83270000
15510000
ENDCHAR
STARTCHAR Euro
ENCODING 8364
SWIDTH 690 0
DWIDTH 17 0
BBX 16 19 0 -1
BITMAP
0000001000000000
000004A998951020
0000090001668986
0000090000620009
0000083442400018
001638757A9989A3
00835E8545000010
0090091355000000
0090090091000000
0248880090000000
3978A50090000000
7200898690000000
6300710180000000
1988C005446579A2
00019006A5B42018
0004600540800009
00008B9910514667
00001A1699984231
0000038300000000
ENDCHAR
STARTCHAR partialdiff
ENCODING 8706
SWIDTH 519 0
DWIDTH 12 0
BBX 14 18 -1 -1
BITMAP
00000028980000
00000391091000
00000180072000
00000081055000
00000054019000
0000003669C300
00000088206300
0000294A004500
0006A107302800
00589004600A00
3950554B668B30
54059781920540
1A481871910360
04D10028B50090
00840000270073
00159710270065
000002952D9960
00000006810000
ENDCHAR
STARTCHAR minus
ENCODING 8722
SWIDTH 467 0
DWIDTH 11 0
BBX 11 6 0 5
BITMAP
011002000100
1A788AA99A20
440002600170
440003500170
1A6887888930
023001100200
ENDCHAR
STARTCHAR fi
ENCODING 64257
SWIDTH 741 0
DWIDTH 18 0
BBX 17 17 0 0
BITMAP
049985875691199950
0A00295642276400A0
090045260009360090
081064234337270090
090069885581450090
0C88560000008A8590
0A0046124000820090
090067768300540080
090072002700450180
090063104500540090
0C874B89A000898490
090155000000720190
090072000000630180
090081000000630270
090072000000810180
360046000000A000A0
198891000000598950
ENDCHAR
STARTCHAR fl
ENCODING 64258
SWIDTH 942 0
DWIDTH 23 0
BBX 24 17 0 0
BITMAP
049985875691199950000000
0A00295642276400A0000000
090045260009360090000000
081064234337270090000000
090069885581450090000000
0C88560000008A8590000000
0A0046124000820090000000
090067768300540080000000
090072002700450180000000
090063104500540090000000
0C874B89A000898490000000
090155000000720190000000
0900720000006301B8422430
09008100000063028A576490
090072000000810188000081
360046000000A000A5010090
198891000000598999989970
ENDCHAR
STARTCHAR .notdef
ENCODING -1
SWIDTH 200 0
DWIDTH 5 0
BBX 1 1 0 0
BITMAP
00
ENDCHAR
STARTCHAR .null
ENCODING -1
SWIDTH 0 0
DWIDTH 0 0
BBX 1 1 0 0
BITMAP
00
ENDCHAR
STARTCHAR nonmarkingreturn
ENCODING -1
SWIDTH 200 0
DWIDTH 5 0
BBX 1 1 0 0
BITMAP
00
ENDCHAR
ENDFONT
